<svg width="19" height="21" viewBox="0 0 19 21" fill="none" xmlns="http://www.w3.org/2000/svg">
<path d="M9.5 10.5C10.4951 10.5 11.4678 10.2049 12.2952 9.65208C13.1226 9.09924 13.7675 8.31347 14.1483 7.39413C14.5291 6.47479 14.6287 5.46317 14.4346 4.4872C14.2404 3.51124 13.7613 2.61475 13.0576 1.91112C12.354 1.20749 11.4575 0.728308 10.4815 0.534176C9.50558 0.340044 8.49396 0.43968 7.57462 0.820483C6.65528 1.20129 5.86951 1.84615 5.31667 2.67354C4.76383 3.50092 4.46875 4.47366 4.46875 5.46875C4.46875 6.80312 4.99883 8.08284 5.94237 9.02638C6.88591 9.96992 8.16563 10.5 9.5 10.5ZM9.5 1.875C10.2108 1.875 10.9056 2.08577 11.4966 2.48066C12.0876 2.87554 12.5482 3.43681 12.8202 4.09348C13.0922 4.75016 13.1634 5.47274 13.0247 6.16986C12.886 6.86698 12.5438 7.50732 12.0412 8.00992C11.5386 8.51251 10.8982 8.85478 10.2011 8.99345C9.50399 9.13212 8.7814 9.06095 8.12473 8.78894C7.46806 8.51694 6.90679 8.05632 6.51191 7.46533C6.11702 6.87434 5.90625 6.17953 5.90625 5.46875C5.90625 4.51563 6.28488 3.60155 6.95884 2.92759C7.63279 2.25363 8.54688 1.875 9.5 1.875Z" fill="white"/>
<path d="M10.2188 11.9375H8.78125C6.68438 11.9375 4.6734 12.7705 3.19069 14.2532C1.70798 15.7359 0.875 17.7469 0.875 19.8438C0.875 20.0344 0.950725 20.2172 1.08552 20.352C1.22031 20.4868 1.40313 20.5625 1.59375 20.5625H17.4062C17.5969 20.5625 17.7797 20.4868 17.9145 20.352C18.0493 20.2172 18.125 20.0344 18.125 19.8438C18.125 17.7469 17.292 15.7359 15.8093 14.2532C14.3266 12.7705 12.3156 11.9375 10.2188 11.9375ZM2.35562 19.125C2.53236 17.5442 3.28534 16.084 4.47068 15.0233C5.65602 13.9625 7.19061 13.3758 8.78125 13.375H10.2188C11.8094 13.3758 13.344 13.9625 14.5293 15.0233C15.7147 16.084 16.4676 17.5442 16.6444 19.125H2.35562Z" fill="white"/>
</svg>
