<svg width="54" height="15" viewBox="0 0 54 15" fill="none" xmlns="http://www.w3.org/2000/svg">
<g clip-path="url(#clip0_22_291)">
<path d="M11.1603 15.018C13.445 15.018 15.2972 13.1997 15.2972 10.9567C15.2972 8.71364 13.445 6.89531 11.1603 6.89531C8.87558 6.89531 7.02344 8.71364 7.02344 10.9567C7.02344 13.1997 8.87558 15.018 11.1603 15.018Z" fill="#97CF26"/>
<path d="M3.40124 12.852C4.46745 12.852 5.33179 12.0034 5.33179 10.9567C5.33179 9.90993 4.46745 9.06137 3.40124 9.06137C2.33504 9.06137 1.4707 9.90993 1.4707 10.9567C1.4707 12.0034 2.33504 12.852 3.40124 12.852Z" fill="#A169F7"/>
<path d="M11.1603 5.93863C12.6225 5.93863 13.8079 4.77489 13.8079 3.33935C13.8079 1.90381 12.6225 0.740074 11.1603 0.740074C9.69807 0.740074 8.5127 1.90381 8.5127 3.33935C8.5127 4.77489 9.69807 5.93863 11.1603 5.93863Z" fill="#FF6163"/>
<path d="M3.40143 6.6787C5.27999 6.6787 6.80286 5.18362 6.80286 3.33935C6.80286 1.49508 5.27999 0 3.40143 0C1.52287 0 0 1.49508 0 3.33935C0 5.18362 1.52287 6.6787 3.40143 6.6787Z" fill="#00AAFF"/>
<path d="M26.0166 12.8159H28.1677L24.1779 2.20217H22.6151L18.6621 12.8159H20.8133L21.5671 10.7942H25.2627L26.0166 12.8159L22.1739 9.18773L23.4241 5.84838L24.6744 9.18773H22.1739L26.0166 12.8159Z" fill="white"/>
<path d="M33.4626 5.57762L31.4953 10.8484L29.528 5.57762H27.5239L30.2267 12.8159H32.7824L35.4851 5.57762H33.4626Z" fill="white"/>
<path d="M36.3125 5.57762H38.3166V12.8159H36.3125V5.57762Z" fill="white"/>
<path d="M37.342 4.74729C38.063 4.74729 38.6474 4.17351 38.6474 3.4657C38.6474 2.7579 38.063 2.18412 37.342 2.18412C36.6211 2.18412 36.0366 2.7579 36.0366 3.4657C36.0366 4.17351 36.6211 4.74729 37.342 4.74729Z" fill="white"/>
<path d="M45.4322 7.16606V5.57762H43.0236V3.57401H41.0195V5.57762H39.4199V7.16606H41.0195V10.2888C41.0195 11.8953 41.8469 12.9603 43.9245 12.9603C44.7335 12.9603 45.4322 12.6715 45.4322 12.6715L45.1932 11.1011C45.1932 11.1011 44.7887 11.2094 44.3106 11.2094C43.7223 11.2094 43.0236 10.9567 43.0236 10.1444V7.16606H45.4322Z" fill="white"/>
<path d="M50.0653 11.1552C48.9438 11.1552 48.0245 10.2888 48.0245 9.20578C48.0245 8.12275 48.9254 7.25632 50.0469 7.25632C51.1685 7.25632 52.0878 8.12275 52.0878 9.20578C52.0878 10.2888 51.1869 11.1552 50.0653 11.1552ZM50.0653 5.37906C47.8774 5.37906 46.1123 7.07581 46.1123 9.16968C46.1123 11.2635 47.8774 12.9603 50.0653 12.9603C52.2533 12.9603 54.0183 11.2635 54.0183 9.16968C53.9999 7.07581 52.2349 5.37906 50.0653 5.37906Z" fill="white"/>
</g>
<defs>
<clipPath id="clip0_22_291">
<rect width="54" height="15" fill="white"/>
</clipPath>
</defs>
</svg>
