<svg width="64" height="48" viewBox="0 0 64 48" fill="none" xmlns="http://www.w3.org/2000/svg">
<path d="M42.0002 32.0002C43.5429 32.0002 44.9378 31.3987 45.9997 30.4415C47.0623 31.3989 48.4572 32.0002 50.0004 32.0002C53.3123 32.0002 55.9999 29.3126 55.9999 26.0007C55.9999 22.6881 53.3123 20.0005 50.0004 20.0005C48.4572 20.0005 47.0623 20.6022 45.9997 21.5589C44.9378 20.6024 43.5429 20.0005 42.0002 20.0005C38.6871 20.0005 36 22.6881 36 26.0007C36 29.3126 38.6871 32.0002 42.0002 32.0002Z" fill="#937940"/>
<path d="M60.0005 0H12.0002C9.78924 0 8 1.78924 8 4.00017V16.0003H12.0002H32.0002H60.0005V36.0004H32.0001V39.9998H60.0004C62.2109 39.9998 63.9999 38.2109 63.9999 36.0004V4.00017C64 1.78924 62.2109 0 60.0005 0ZM60.0005 8.00035H12.0002V4.00017H60.0005V8.00035Z" fill="#937940"/>
<path d="M13.9999 20.0002C6.26584 20.0002 0 26.2658 0 33.9995C0 41.7346 6.26584 48 13.9999 48C21.7346 48 28.0004 41.7346 28.0004 33.9995C28.0003 26.2658 21.7344 20.0002 13.9999 20.0002ZM11.172 42.4848L4.1016 35.4142L6.92931 32.5863L11.172 36.8282L21.0702 26.9301L23.8986 29.7582L11.172 42.4848Z" fill="#937940"/>
</svg>
