<svg width="53" height="53" viewBox="0 0 53 53" fill="none" xmlns="http://www.w3.org/2000/svg">
<path d="M23.226 20.5166L1.2586 42.4839C0.441494 43.3009 0.0327148 44.2796 0.0327148 45.4194C0.0327148 46.5809 0.441381 47.5483 1.2586 48.3231L4.67774 51.807C5.51677 52.6027 6.49522 53.0002 7.6132 53.0002C8.7531 53.0002 9.72082 52.6027 10.5166 51.807L32.5157 29.8071C30.4089 28.9681 28.5436 27.737 26.9194 26.1135C25.296 24.4897 24.065 22.6241 23.226 20.5166ZM11.1296 44.8066C10.7205 45.2149 10.2367 45.4195 9.67777 45.4195C9.11861 45.4195 8.63481 45.2149 8.22626 44.8066C7.81759 44.3979 7.6132 43.9142 7.6132 43.355C7.6132 42.7964 7.81759 42.312 8.22626 41.9027C8.63481 41.4949 9.11827 41.2902 9.67777 41.2902C10.237 41.2902 10.721 41.4949 11.1296 41.9027C11.5381 42.3119 11.7425 42.7963 11.7425 43.355C11.7425 43.9141 11.5381 44.3979 11.1296 44.8066Z" fill="#937940"/>
<path d="M52.694 14.9679C52.5112 14.7526 52.2583 14.6452 51.9362 14.6452C51.7429 14.6452 50.985 15.0272 49.6619 15.7907C48.3395 16.5539 46.8822 17.4247 45.2911 18.4033C43.6993 19.3821 42.8498 19.9036 42.7426 19.9682L36.5165 16.5165V9.29065L45.9678 3.83867C46.3118 3.60219 46.4839 3.30108 46.4839 2.93547C46.4839 2.57007 46.3118 2.26908 45.9678 2.03249C45.0212 1.38712 43.8651 0.887046 42.5003 0.532273C41.1346 0.1775 39.8279 0 38.5808 0C34.6025 0 31.1993 1.41435 28.3718 4.24214C25.5432 7.0697 24.1299 10.4732 24.1299 14.4515C24.1299 18.4299 25.544 21.8332 28.3718 24.661C31.1993 27.4886 34.6025 28.9029 38.5808 28.9029C41.6133 28.9029 44.393 28.0044 46.9198 26.2091C49.4461 24.4135 51.2156 22.0748 52.2262 19.1931C52.7204 17.7524 52.9677 16.6124 52.9677 15.774C52.9685 15.4522 52.8764 15.1833 52.694 14.9679Z" fill="#937940"/>
</svg>
