<svg width="10" height="15" viewBox="0 0 10 15" fill="none" xmlns="http://www.w3.org/2000/svg">
<path d="M4.99993 2.47484C3.91822 2.47484 3.03809 3.29997 3.03809 4.31407C3.03809 5.32817 3.91793 6.1533 4.99993 6.1533C6.08193 6.1533 6.96177 5.32817 6.96177 4.31407C6.96177 3.29997 6.08164 2.47484 4.99993 2.47484ZM4.99993 5.61648C4.23402 5.61648 3.61069 5.03211 3.61069 4.31407C3.61069 3.59603 4.23402 3.01166 4.99993 3.01166C5.76584 3.01166 6.38917 3.59603 6.38917 4.31407C6.38917 5.03211 5.76584 5.61648 4.99993 5.61648Z" fill="#272727"/>
<path d="M8.46147 1.34397C7.537 0.477231 6.30809 0 5.0005 0C3.69291 0 2.46371 0.477231 1.5389 1.34397C0.310044 2.49608 -0.174412 4.19303 0.274555 5.77326C0.411146 6.25429 4.29872 13.9682 4.74169 14.8462C4.78922 14.9401 4.88998 15 5.0005 15C5.11101 15 5.21206 14.9401 5.2593 14.8462C5.70194 13.9682 9.58871 6.25429 9.72558 5.77379C10.174 4.19329 9.68981 2.49581 8.46147 1.34397ZM9.17215 5.63526C9.06991 5.97454 6.7121 10.7036 5.0005 14.1032C3.28833 10.7034 0.929949 5.974 0.827991 5.63526C0.431172 4.23945 0.858915 2.74058 1.94376 1.7238C2.76034 0.958528 3.84576 0.537086 5.0005 0.537086C6.15495 0.537086 7.24009 0.958528 8.05666 1.7238C9.14094 2.74058 9.5684 4.23945 9.17215 5.63526Z" fill="#272727"/>
</svg>
