<svg width="256" height="57" viewBox="0 0 256 57" fill="none" xmlns="http://www.w3.org/2000/svg">
<path d="M56.1892 17.9204C57.8097 17.9204 59.3182 18.2229 60.7149 18.828C62.111 19.4329 63.3352 20.2626 64.3869 21.3168C65.4385 22.3712 66.2661 23.5985 66.8696 24.9981C67.473 26.3983 67.7746 27.9108 67.7746 29.5358V41.2023H56.189C54.6027 41.2023 53.1029 40.8999 51.6892 40.2947C50.2752 39.6897 49.0343 38.8514 47.9653 37.7798C46.8964 36.7082 46.0599 35.4642 45.4569 34.0466C44.8531 32.6291 44.5515 31.1257 44.5515 29.5358C44.5515 27.9108 44.8531 26.3985 45.4569 24.9981C46.0601 23.5985 46.8964 22.3712 47.9653 21.3168C49.0343 20.2626 50.2752 19.4329 51.6892 18.828C53.1031 18.2229 54.6027 17.9204 56.189 17.9204H56.1892ZM144.54 33.0096L147.799 36.276L146.196 37.8837C145.092 38.9897 143.833 39.8367 142.42 40.4243C141.006 41.0121 139.523 41.3058 137.972 41.3058C136.42 41.3058 134.937 41.0121 133.524 40.4243C132.11 39.8367 130.851 38.9897 129.748 37.8837C128.61 36.743 127.766 35.4552 127.214 34.0206C126.662 32.5862 126.386 31.1257 126.386 29.6391C126.386 28.1527 126.662 26.701 127.214 25.2837C127.766 23.8663 128.61 22.5873 129.748 21.4467C130.886 20.3058 132.171 19.4504 133.601 18.8801C135.032 18.3097 136.489 18.0245 137.972 18.0245C139.455 18.0245 140.911 18.3099 142.342 18.8801C143.773 19.4504 145.058 20.3058 146.196 21.4467L147.799 23.0543L134.92 35.9654C136.23 36.6222 137.618 36.8383 139.084 36.6135C140.549 36.3888 141.834 35.7233 142.937 34.6173L144.54 33.0098V33.0096ZM133.007 24.6612C131.627 26.0439 130.938 27.7032 130.938 29.639C130.938 30.7105 131.179 31.7305 131.662 32.6983C132.075 32.2835 132.705 31.6527 133.55 30.8057C134.395 29.9588 135.291 29.0602 136.239 28.1095C137.187 27.1588 138.101 26.2515 138.98 25.3873C139.859 24.5231 140.541 23.8492 141.023 23.3651C139.713 22.7082 138.325 22.4836 136.859 22.691C135.394 22.8985 134.11 23.5551 133.006 24.6614L133.007 24.6612ZM120.024 8.58705H124.628V41.2021H120.024V8.58705ZM106.835 18.0241C108.456 18.0241 109.965 18.3267 111.361 18.9314C112.757 19.5365 113.99 20.3661 115.059 21.4204C116.128 22.4748 116.964 23.7019 117.568 25.1019C118.171 26.5019 118.473 28.0142 118.473 29.6388C118.473 31.2289 118.171 32.7328 117.568 34.1499C116.964 35.5674 116.128 36.8118 115.059 37.8833C113.99 38.955 112.757 39.7931 111.361 40.398C109.965 41.0031 108.456 41.3057 106.835 41.3057H99.8531V50.639H95.25V29.6388C95.25 28.0142 95.5518 26.5019 96.155 25.1019C96.7586 23.7019 97.5862 22.4748 98.6377 21.4204C99.6895 20.3661 100.922 19.5365 102.336 18.9314C103.75 18.3265 105.249 18.0241 106.835 18.0241ZM106.835 36.691C107.801 36.691 108.715 36.5094 109.577 36.1465C110.439 35.7833 111.189 35.2821 111.827 34.6428C112.465 34.0033 112.965 33.2513 113.327 32.3871C113.689 31.523 113.87 30.6069 113.87 29.639C113.87 28.6712 113.689 27.7637 113.327 26.9168C112.965 26.0698 112.465 25.3268 111.827 24.6871C111.189 24.0478 110.439 23.5465 109.577 23.1834C108.715 22.8205 107.801 22.639 106.835 22.639C105.87 22.639 104.965 22.8205 104.12 23.1834C103.275 23.5466 102.534 24.0478 101.896 24.6871C101.258 25.3266 100.758 26.0698 100.396 26.9168C100.034 27.7639 99.8529 28.6712 99.8529 29.639V36.6911H106.835L106.835 36.691ZM82.0608 18.0241C83.6815 18.0241 85.19 18.3267 86.5865 18.9314C87.983 19.5365 89.2158 20.3661 90.2848 21.4204C91.3534 22.4748 92.1896 23.7019 92.793 25.1019C93.3966 26.5019 93.6984 28.0142 93.6984 29.6388C93.6984 31.2289 93.3966 32.7328 92.793 34.1499C92.1896 35.5674 91.3534 36.8118 90.2848 37.8833C89.2158 38.955 87.983 39.7931 86.5865 40.398C85.19 41.0031 83.6815 41.3057 82.0608 41.3057H75.0785V50.639H70.4754V29.6388C70.4754 28.0142 70.7772 26.5019 71.3804 25.1019C71.984 23.7019 72.8115 22.4748 73.8631 21.4204C74.9149 20.3661 76.1475 19.5365 77.5612 18.9314C78.9751 18.3265 80.4749 18.0241 82.0608 18.0241ZM82.0608 36.691C83.0264 36.691 83.9402 36.5094 84.8024 36.1465C85.6643 35.7833 86.4142 35.2821 87.0523 34.6428C87.69 34.0033 88.1901 33.2513 88.5522 32.3871C88.9142 31.523 89.0953 30.6069 89.0953 29.639C89.0953 28.6712 88.9142 27.7637 88.5522 26.9168C88.1899 26.0698 87.69 25.3268 87.0523 24.6871C86.4144 24.0478 85.6643 23.5465 84.8024 23.1834C83.9403 22.8205 83.0266 22.639 82.0608 22.639C81.0955 22.639 80.1903 22.8205 79.3457 23.1834C78.5009 23.5466 77.7595 24.0478 77.1217 24.6871C76.4836 25.3266 75.9837 26.0698 75.6217 26.9168C75.2596 27.7639 75.0785 28.6712 75.0785 29.639V36.6911H82.0608V36.691ZM63.1717 36.5874V29.5356C63.1717 28.5674 62.9905 27.66 62.6285 26.8134C62.2664 25.9663 61.7666 25.2231 61.1286 24.5836C60.4909 23.9443 59.7495 23.4427 58.9044 23.0795C58.0597 22.717 57.1547 22.5351 56.1894 22.5351C55.2239 22.5351 54.3097 22.7168 53.4478 23.0795C52.586 23.4427 51.8358 23.9441 51.1979 24.5836C50.5602 25.2229 50.06 25.9663 49.6976 26.8134C49.336 27.6602 49.155 28.5674 49.155 29.5356C49.155 30.5034 49.3359 31.4193 49.6976 32.2835C50.06 33.1476 50.5601 33.8996 51.1979 34.5391C51.8356 35.1784 52.586 35.6798 53.4478 36.0432C54.3097 36.4057 55.2237 36.5876 56.1894 36.5876H63.1717V36.5874Z" fill="url(#paint0_linear_28_2149)"/>
<path d="M163.315 17.9211V22.5358H160.987C160.022 22.5358 159.117 22.7172 158.272 23.0802C157.427 23.4433 156.686 23.9444 156.048 24.5838C155.41 25.2232 154.91 25.9666 154.548 26.8136C154.186 27.6605 154.005 28.5678 154.005 29.5356V41.2021H149.35V29.5356C149.35 27.911 149.652 26.3987 150.255 24.9987C150.859 23.5987 151.695 22.3716 152.764 21.3174C153.833 20.2629 155.074 19.4335 156.488 18.8284C157.901 18.2235 159.401 17.9211 160.987 17.9211H163.315H163.315Z" fill="#272727"/>
<path d="M164.66 29.6395C164.66 28.0148 164.962 26.5026 165.565 25.1026C166.169 23.7026 166.996 22.4755 168.048 21.4211C169.099 20.3669 170.332 19.5372 171.746 18.9323C173.159 18.3272 174.659 18.025 176.245 18.025C177.866 18.025 179.374 18.3274 180.771 18.9323C182.167 19.5372 183.4 20.3669 184.469 21.4211C185.538 22.4755 186.374 23.7026 186.977 25.1026C187.581 26.5026 187.882 28.0148 187.882 29.6395C187.882 31.2295 187.581 32.7334 186.977 34.1505C186.374 35.5678 185.538 36.8121 184.469 37.8837C183.4 38.9552 182.167 39.7935 180.771 40.3986C179.374 41.0035 177.866 41.3058 176.245 41.3058C174.659 41.3058 173.159 41.0033 171.746 40.3986C170.332 39.7935 169.099 38.9552 168.048 37.8837C166.996 36.8121 166.169 35.5678 165.565 34.1505C164.962 32.7332 164.66 31.2295 164.66 29.6395ZM169.212 29.6395C169.212 30.6073 169.392 31.5234 169.755 32.3874C170.117 33.2517 170.617 34.0035 171.254 34.643C171.892 35.2825 172.642 35.7839 173.504 36.1467C174.366 36.5098 175.28 36.6911 176.245 36.6911C177.211 36.6911 178.125 36.5098 178.987 36.1467C179.848 35.7837 180.598 35.2825 181.236 34.643C181.874 34.0037 182.374 33.2517 182.736 32.3874C183.098 31.5234 183.279 30.6073 183.279 29.6395C183.279 28.6715 183.098 27.7641 182.736 26.9173C182.374 26.0704 181.874 25.3273 181.236 24.6877C180.599 24.0482 179.848 23.547 178.987 23.1841C178.125 22.8211 177.211 22.6395 176.245 22.6395C175.28 22.6395 174.366 22.8211 173.504 23.1841C172.642 23.5472 171.892 24.0482 171.254 24.6877C170.617 25.3271 170.117 26.0704 169.755 26.9173C169.392 27.7643 169.212 28.6715 169.212 29.6395Z" fill="#272727"/>
<path d="M189.435 29.6395C189.435 28.0148 189.736 26.5026 190.34 25.1026C190.943 23.7026 191.771 22.4755 192.822 21.4211C193.874 20.3669 195.106 19.5372 196.52 18.9323C197.934 18.3272 199.434 18.025 201.02 18.025C202.64 18.025 204.149 18.3274 205.545 18.9323C206.942 19.5372 208.175 20.3669 209.243 21.4211C210.312 22.4755 211.148 23.7026 211.752 25.1026C212.355 26.5026 212.657 28.0148 212.657 29.6395C212.657 31.2295 212.355 32.7334 211.752 34.1505C211.148 35.5678 210.312 36.8121 209.243 37.8837C208.175 38.9552 206.942 39.7935 205.545 40.3986C204.149 41.0035 202.64 41.3058 201.02 41.3058C199.434 41.3058 197.934 41.0033 196.52 40.3986C195.106 39.7935 193.874 38.9552 192.822 37.8837C191.771 36.8121 190.943 35.5678 190.34 34.1505C189.736 32.7332 189.435 31.2295 189.435 29.6395ZM193.986 29.6395C193.986 30.6073 194.167 31.5234 194.529 32.3874C194.891 33.2517 195.391 34.0035 196.029 34.643C196.667 35.2825 197.417 35.7839 198.279 36.1467C199.141 36.5098 200.054 36.6911 201.02 36.6911C201.985 36.6911 202.899 36.5098 203.761 36.1467C204.623 35.7837 205.373 35.2825 206.011 34.643C206.649 34.0037 207.149 33.2517 207.511 32.3874C207.873 31.5234 208.054 30.6073 208.054 29.6395C208.054 28.6715 207.873 27.7641 207.511 26.9173C207.149 26.0704 206.649 25.3273 206.011 24.6877C205.373 24.0482 204.623 23.547 203.761 23.1841C202.899 22.8211 201.985 22.6395 201.02 22.6395C200.054 22.6395 199.141 22.8211 198.279 23.1841C197.417 23.5472 196.667 24.0482 196.029 24.6877C195.391 25.3271 194.891 26.0704 194.529 26.9173C194.167 27.7643 193.986 28.6715 193.986 29.6395Z" fill="#272727"/>
<path d="M244.363 17.9211C245.983 17.9211 247.492 18.2236 248.888 18.8284C250.284 19.4335 251.517 20.2629 252.586 21.3174C253.655 22.3716 254.491 23.5987 255.095 24.9987C255.698 26.3987 255.999 27.911 255.999 29.5356V41.2021H251.396V29.5356C251.396 28.5678 251.215 27.6603 250.853 26.8136C250.491 25.9666 249.991 25.2234 249.353 24.5838C248.716 23.9444 247.966 23.4431 247.104 23.0802C246.242 22.7172 245.328 22.5358 244.363 22.5358C243.397 22.5358 242.492 22.7172 241.647 23.0802C240.802 23.4433 240.061 23.9444 239.423 24.5838C238.785 25.2232 238.285 25.9666 237.923 26.8136C237.561 27.6605 237.38 28.5678 237.38 29.5356V41.2021H232.777V29.5356C232.777 28.5678 232.596 27.6603 232.234 26.8136C231.872 25.9666 231.372 25.2234 230.734 24.5838C230.096 23.9444 229.346 23.4431 228.484 23.0802C227.622 22.7172 226.709 22.5358 225.743 22.5358C224.778 22.5358 223.873 22.7172 223.028 23.0802C222.183 23.4433 221.442 23.9444 220.804 24.5838C220.166 25.2232 219.666 25.9666 219.304 26.8136C218.942 27.6605 218.761 28.5678 218.761 29.5356V41.2021H214.158V29.5356C214.158 27.911 214.46 26.3987 215.063 24.9987C215.667 23.5987 216.494 22.3716 217.546 21.3174C218.597 20.2629 219.83 19.4335 221.244 18.8284C222.657 18.2235 224.157 17.9211 225.743 17.9211C227.674 17.9211 229.441 18.3445 231.045 19.1914C232.648 20.0384 233.984 21.1877 235.053 22.6395C236.122 21.1879 237.467 20.0384 239.087 19.1914C240.708 18.3445 242.466 17.9211 244.363 17.9211H244.363Z" fill="#272727"/>
<path fill-rule="evenodd" clip-rule="evenodd" d="M46.7795 18.5662C46.7445 18.5172 46.7102 18.4684 46.6751 18.4199C39.7149 7.8424 31.9397 15.7788 25.5589 15.3812C23.4576 15.2501 21.6523 14.896 20.1434 14.3194C-3.28543 5.36477 -6.59642 41.8771 11.8905 55.3612C17.6208 59.5405 19.2025 54.4788 24.0373 53.878C30.8364 53.0332 33.2718 58.8932 38.6795 55.5458C41.903 53.5503 45.2083 48.8064 48.5947 41.3147C43.8754 39.4772 40.5294 34.8807 40.5294 29.4999C40.5294 24.8389 43.0403 20.7665 46.7795 18.5662ZM24.0621 13.6887C30.806 13.1256 35.9261 6.81861 35.0687 0C27.9464 0.256623 23.343 6.85084 24.0621 13.6887Z" fill="url(#paint1_radial_28_2149)"/>
<defs>
<linearGradient id="paint0_linear_28_2149" x1="95.9601" y1="8.58255" x2="96.3927" y2="50.6436" gradientUnits="userSpaceOnUse">
<stop stop-color="#5E491B"/>
<stop offset="0.180392" stop-color="#78622C"/>
<stop offset="0.521569" stop-color="#DDC26E"/>
<stop offset="0.831373" stop-color="#7B642E"/>
<stop offset="1" stop-color="#5E491B"/>
</linearGradient>
<radialGradient id="paint1_radial_28_2149" cx="0" cy="0" r="1" gradientUnits="userSpaceOnUse" gradientTransform="translate(24.3056 30.21) scale(23.3897 27.4352)">
<stop stop-color="#F0DF84"/>
<stop offset="1" stop-color="#886D38"/>
</radialGradient>
</defs>
</svg>
