<svg width="73" height="49" viewBox="0 0 73 49" fill="none" xmlns="http://www.w3.org/2000/svg">
<path d="M72.9274 25.2189C72.9274 25.2067 72.9267 25.1946 72.9265 25.1764C72.9065 24.2633 72.1733 23.5359 71.2492 23.5359H70.8088L64.0074 10.3863C63.7205 9.83077 63.1482 9.4853 62.5164 9.48512L50.9046 9.48269L51.3476 5.97122C51.474 4.56793 51.0401 3.24297 50.1257 2.24009C49.213 1.23927 47.9387 0.687988 46.5373 0.687988H10.4984C9.59221 0.687988 8.82246 1.38912 8.73606 2.29303L8.37481 5.18613H28.9081C30.2413 5.18613 31.2939 6.26696 31.259 7.60025C31.224 8.93353 30.1149 10.0143 28.7817 10.0143H21.9327C21.9339 10.0178 21.9351 10.0204 21.9363 10.0265H1.82383C0.880951 10.0265 0.0965423 10.7907 0.0718844 11.7336C0.0472284 12.6764 0.791457 13.4407 1.73433 13.4407H28.3611C29.5971 13.6313 30.5205 14.6999 30.4865 15.9941C30.4493 17.4153 29.2728 18.5677 27.854 18.5796H9.49685C8.54449 18.5796 7.75232 19.3516 7.72732 20.3039C7.70231 21.2563 8.45414 22.0283 9.4065 22.0283H27.5474C28.8015 22.2031 29.7433 23.2805 29.7092 24.5873C29.6718 26.0157 28.4834 27.1737 27.0549 27.1737H6.24317V27.1756H4.4945C3.54214 27.1756 2.74998 27.9477 2.72497 28.9C2.69996 29.8523 3.45162 30.6244 4.40415 30.6244H5.9133L5.32306 36.8007C5.19649 38.2038 5.63034 39.5287 6.54493 40.5316C7.45746 41.5326 8.73193 42.0837 10.1333 42.0837H11.4352C12.0556 45.6314 15.125 48.3119 18.8794 48.3119C22.6338 48.3119 25.8435 45.6314 26.6493 42.0839H42.896C44.2096 42.0839 45.4532 41.5818 46.4285 40.7592C47.3204 41.6152 48.5026 42.0839 49.7934 42.0839H50.0607C50.6809 45.6314 53.7503 48.3119 57.5049 48.3119C61.2593 48.3119 64.469 45.6314 65.2748 42.0839H66.3472C69.1408 42.0839 71.6184 39.8128 71.8701 37.0212L72.921 25.3808C72.9223 25.3626 72.9216 25.3504 72.9227 25.3322C72.9244 25.3079 72.9277 25.2836 72.9284 25.2606C72.9287 25.2484 72.9274 25.231 72.9274 25.2189ZM18.9698 44.8629C16.5928 44.8629 14.7094 42.9292 14.7717 40.5521C14.8339 38.1749 16.8185 36.2411 19.1955 36.2411C21.5725 36.2411 23.4557 38.1749 23.3934 40.5521C23.3312 42.9292 21.3468 44.8629 18.9698 44.8629ZM57.5953 44.8629C55.2183 44.8629 53.3351 42.9292 53.3972 40.5521C53.4594 38.1749 55.444 36.2411 57.821 36.2411C60.198 36.2411 62.0813 38.1749 62.0189 40.5521C61.9567 42.9292 59.9723 44.8629 57.5953 44.8629ZM68.4346 36.8003C68.3449 37.7947 67.4305 38.6348 66.4378 38.6348H65.2778C64.5098 35.2804 61.5284 32.7924 57.9112 32.7924C54.294 32.7924 51.1824 35.2804 50.2388 38.6348H49.8838C49.4455 38.6348 49.0544 38.4703 48.7821 38.1716C48.5081 37.871 48.3791 37.4624 48.419 37.0204L50.5932 12.9328L55.5867 12.9338L54.7953 21.7025C54.6685 23.1056 55.1022 24.4306 56.0166 25.4334C56.9292 26.4346 58.204 26.9861 59.6055 26.9861H69.3202L68.4346 36.8003Z" fill="#937940"/>
</svg>
