<svg width="45" height="27" viewBox="0 0 45 27" fill="none" xmlns="http://www.w3.org/2000/svg">
<path fill-rule="evenodd" clip-rule="evenodd" d="M31.5086 26.2863L32.184 26.2685L32.8521 26.2199L33.5062 26.1361L34.1555 26.0204L34.7873 25.8744L35.4108 25.6969L36.0203 25.4883L36.6177 25.2535L37.2008 24.988L37.7668 24.6994L38.3143 24.3797L38.8497 24.0386L39.3624 23.6711L39.8567 23.2805L40.3342 22.8682L40.7898 22.4297L41.227 21.973L41.638 21.4933L42.0277 20.9975L42.3942 20.4828L42.7348 19.9468L43.0514 19.3962L43.3391 18.8288L43.6049 18.2442L43.839 17.645L44.0462 17.0335L44.2242 16.4092L44.3695 15.775L44.4841 15.1234L44.568 14.4665L44.6175 13.7971L44.6342 13.1192L44.6175 12.4452L44.568 11.78L44.4841 11.1242L44.3695 10.4809L44.2242 9.84746L44.0462 9.22658L43.839 8.61478L43.6049 8.02045L43.3391 7.44045L43.0514 6.87198L42.7348 6.32727L42.3942 5.79129L42.0277 5.27662L41.638 4.78432L41.227 4.30634L40.7898 3.84933L40.3342 3.41468L39.8567 3.00204L39.3624 2.61211L38.8497 2.24419L38.3143 1.90248L37.7668 1.58837L37.2008 1.30046L36.6177 1.03352L36.0203 0.798726L35.4108 0.590484L34.7873 0.41299L34.1555 0.266242L33.5062 0.151989L32.8521 0.0674337L32.184 0.0181684L31.5086 0L30.8356 0.0181684L30.1683 0.0674337L29.5152 0.151989L28.8694 0.266242L28.2376 0.41299L27.6151 0.590484L27.0091 0.798726L26.4117 1.03352L25.8328 1.30046L25.2717 1.58837L24.7238 1.90248L24.194 2.24419L23.6816 2.61211L23.1863 3.00204L22.7133 3.41468L22.2573 3.84933L21.8247 4.30634L21.413 4.78432L21.0246 5.27662L20.6627 5.79129L20.3221 6.32727L20.0083 6.87198L19.7164 7.44045L19.4558 8.02045L19.2211 8.61478L19.0183 9.22658L18.8407 9.84746L18.6951 10.4809L18.5805 11.1242L18.4973 11.78L18.4478 12.4452L18.4297 13.1192L18.4478 13.7971L18.4973 14.4665L18.5805 15.1234L18.6951 15.775L18.8407 16.4092L19.0183 17.0335L19.2211 17.645L19.4558 18.2442L19.7164 18.8288L20.0083 19.3962L20.3221 19.9468L20.6627 20.4828L21.0246 20.9975L21.413 21.4933L21.8247 21.973L22.2573 22.4297L22.7133 22.8682L23.1863 23.2805L23.6816 23.6711L24.194 24.0386L24.7238 24.3797L25.2717 24.6994L25.8328 24.988L26.4117 25.2535L27.0091 25.4883L27.6151 25.6969L28.2376 25.8744L28.8694 26.0204L29.5152 26.1361L30.1683 26.2199L30.8356 26.2685L31.5086 26.2863Z" fill="#FBB231"/>
<path fill-rule="evenodd" clip-rule="evenodd" d="M13.9803 26.2863L14.6509 26.2685L15.3189 26.2199L15.9734 26.1361L16.6185 26.0204L17.25 25.8744L17.8731 25.6969L18.4792 25.4883L19.0755 25.2535L19.6541 24.988L20.2162 24.6994L20.7638 24.3797L21.2939 24.0386L21.8073 23.6711L22.3023 23.2805L22.7746 22.8682L23.2299 22.4297L23.6635 21.973L24.0745 21.4933L24.4629 20.9975L24.8252 20.4828L25.1661 19.9468L25.4803 19.3962L25.7712 18.8288L26.0321 18.2442L26.2668 17.645L26.4696 17.0335L26.6465 16.4092L26.7924 15.775L26.9074 15.1234L26.991 14.4665L27.0394 13.7971L27.0575 13.1192L27.0394 12.4452L26.991 11.78L26.9074 11.1242L26.7924 10.4809L26.6465 9.84746L26.4696 9.22658L26.2668 8.61478L26.0321 8.02045L25.7712 7.44045L25.4803 6.87198L25.1661 6.32727L24.8252 5.79129L24.4629 5.27662L24.0745 4.78432L23.6635 4.30634L23.2299 3.84933L22.7746 3.41468L22.3023 3.00204L21.8073 2.61211L21.2939 2.24419L20.7638 1.90248L20.2162 1.58837L19.6541 1.30046L19.0755 1.03352L18.4792 0.798726L17.8731 0.590484L17.25 0.41299L16.6185 0.266242L15.9734 0.151989L15.3189 0.0674337L14.6509 0.0181684L13.9803 0L13.3032 0.0181684L12.6365 0.0674337L11.9817 0.151989L11.3314 0.266242L10.6999 0.41299L10.0768 0.590484L9.46652 0.798726L8.87055 1.03352L8.28713 1.30046L7.72111 1.58837L7.17321 1.90248L6.6382 2.24419L6.12583 2.61211L5.63087 3.00204L5.15333 3.41468L4.69878 3.84933L4.26094 4.30634L3.84993 4.78432L3.46086 5.27662L3.09408 5.79129L2.75378 6.32727L2.43542 6.87198L2.14841 7.44045L1.88299 8.02045L1.64892 8.61478L1.44168 9.22658L1.26473 9.84746L1.11844 10.4809L1.00384 11.1242L0.919204 11.78L0.871132 12.4452L0.853027 13.1192L0.871132 13.7971L0.919204 14.4665L1.00384 15.1234L1.11844 15.775L1.26473 16.4092L1.44168 17.0335L1.64892 17.645L1.88299 18.2442L2.14841 18.8288L2.43542 19.3962L2.75378 19.9468L3.09408 20.4828L3.46086 20.9975L3.84993 21.4933L4.26094 21.973L4.69878 22.4297L5.15333 22.8682L5.63087 23.2805L6.12583 23.6711L6.6382 24.0386L7.17321 24.3797L7.72111 24.6994L8.28713 24.988L8.87055 25.2535L9.46652 25.4883L10.0768 25.6969L10.6999 25.8744L11.3314 26.0204L11.9817 26.1361L12.6365 26.2199L13.3032 26.2685L13.9803 26.2863Z" fill="#EC1C2E"/>
<path fill-rule="evenodd" clip-rule="evenodd" d="M21.2104 5.04191H28.1715V4.32739H21.8116L21.2104 5.04191Z" fill="#FBB231"/>
<path fill-rule="evenodd" clip-rule="evenodd" d="M20.167 6.62883H28.1713V5.91431H20.5867L20.167 6.62883Z" fill="#FBB231"/>
<path fill-rule="evenodd" clip-rule="evenodd" d="M19.3896 8.21135H28.1714V7.49683H19.6989L19.3896 8.21135Z" fill="#FBB231"/>
<path fill-rule="evenodd" clip-rule="evenodd" d="M18.8545 9.79809H28.1712V9.08496H19.0753L18.8545 9.79809Z" fill="#FBB231"/>
<path fill-rule="evenodd" clip-rule="evenodd" d="M19.1648 17.4686H28.1934V16.7544H18.9429L19.1648 17.4686Z" fill="#FBB231"/>
<path fill-rule="evenodd" clip-rule="evenodd" d="M19.8311 19.0556H28.1931V18.3418H19.4995L19.8311 19.0556Z" fill="#FBB231"/>
<path fill-rule="evenodd" clip-rule="evenodd" d="M20.7674 20.6384H28.1935V19.9246H20.3223L20.7674 20.6384Z" fill="#FBB231"/>
<path fill-rule="evenodd" clip-rule="evenodd" d="M22.0587 22.2248H28.1932V21.5068H21.4355L22.0587 22.2248Z" fill="#FBB231"/>
<path fill-rule="evenodd" clip-rule="evenodd" d="M18.541 11.381H28.1716V10.6675H18.6779L18.541 11.381Z" fill="#FBB231"/>
<path fill-rule="evenodd" clip-rule="evenodd" d="M24.4102 15.8858H28.0828V15.1716H24.5429L24.4102 15.8858Z" fill="#FBB231"/>
<path fill-rule="evenodd" clip-rule="evenodd" d="M24.7021 14.3027H28.0825V13.5847H24.8342L24.7021 14.3027Z" fill="#FBB231"/>
<path fill-rule="evenodd" clip-rule="evenodd" d="M18.2979 13.5847H19.2533V14.3027H18.3428L18.2979 13.5847Z" fill="#FBB231"/>
<path fill-rule="evenodd" clip-rule="evenodd" d="M16.5162 12.7199L16.4545 12.715L16.3932 12.7066L16.3354 12.6983L16.2786 12.6895L16.225 12.6804L16.1675 12.6714L16.1107 12.6633L16.0481 12.6532L15.9868 12.6451L15.9157 12.6403L15.8359 12.6357L15.7527 12.6308H15.6597L15.5576 12.6357L15.4423 12.6451L15.3149 12.6532L15.2264 12.6672L15.1424 12.6804L15.0668 12.7066L15.001 12.7332L14.9387 12.7643L14.8822 12.7999L14.837 12.845L14.7966 12.8845L14.7708 12.9331L14.7488 12.982L14.7394 13.0347V13.0882L14.753 13.1462L14.7708 13.2035L14.806 13.2611L14.8502 13.3191L14.9387 13.4026L15.0453 13.469L15.1689 13.527L15.3016 13.5756L15.4423 13.6207L15.5879 13.6685L15.7339 13.7227L15.8756 13.78L16.0083 13.8551L16.1323 13.9481L16.2424 14.0595L16.3354 14.1968L16.4058 14.3649L16.4507 14.564L16.4678 14.8041L16.4507 15.0836L16.4197 15.2918L16.3664 15.4735L16.2954 15.6416L16.2076 15.788L16.1062 15.9169L15.9902 16.0273L15.8666 16.1248L15.7307 16.2094L15.5879 16.2761L15.4423 16.3334L15.2922 16.3778L15.1379 16.4131L14.9871 16.4403L14.8422 16.4529L14.6966 16.4623L14.559 16.4658H14.3681L14.1919 16.4623H14.0369L13.8913 16.4581L13.7586 16.4529L13.6398 16.4442L13.5339 16.4354L13.4319 16.4221L13.3389 16.4131L13.2553 16.3959L13.171 16.382L13.0961 16.36L13.0202 16.3421L12.9505 16.3152L12.8794 16.2894L12.8042 16.2625L13.0027 15.2828L13.0428 15.2918L13.0905 15.3055L13.1529 15.3222L13.2288 15.3411L13.3079 15.3579L13.3963 15.376L13.4935 15.3977L13.5991 15.4159L13.7102 15.4333L13.8255 15.4512L13.9442 15.4644L14.0682 15.4777L14.1957 15.4819L14.3253 15.4865H14.4521L14.5806 15.4819L14.7095 15.4554L14.8112 15.4201L14.8899 15.3715L14.9519 15.3097L14.9965 15.2468L15.032 15.1755L15.0543 15.1056L15.0714 15.0392L15.0808 14.91L15.0411 14.7992L14.9651 14.7101L14.8547 14.6357L14.722 14.5689L14.5677 14.5022L14.3956 14.44L14.2232 14.3691L14.0459 14.2894L13.8784 14.1968L13.7237 14.0812L13.582 13.9439L13.4716 13.7751L13.3922 13.5756L13.3521 13.3366L13.3563 13.0532L13.3789 12.8799L13.4103 12.715L13.4538 12.5651L13.5064 12.4233L13.5775 12.2905L13.6572 12.1749L13.7506 12.0637L13.861 11.967L13.9895 11.8828L14.1306 11.8115L14.2887 11.7447L14.466 11.6965L14.6656 11.6556L14.8822 11.6253L15.1198 11.6071L15.3817 11.6025H15.544L15.6945 11.6071L15.8317 11.6123L15.9554 11.6165L16.0658 11.6253L16.1675 11.634L16.2557 11.6427L16.3354 11.6522L16.4107 11.6602L16.473 11.6735L16.5301 11.6833L16.5834 11.6916L16.6276 11.7L16.6674 11.7053L16.7064 11.714L16.7419 11.7185L16.5162 12.7199Z" fill="white"/>
<path fill-rule="evenodd" clip-rule="evenodd" d="M17.5639 10.6235H18.789L18.6075 11.6965H19.3456L19.186 12.6983L18.4079 12.6759L17.9844 15.1493L17.9798 15.238L18.0014 15.3142L18.046 15.3715L18.1038 15.4201L18.1832 15.4512L18.2714 15.4777L18.3682 15.4952L18.4744 15.5046L18.5716 15.5004L18.6597 15.491L18.7402 15.4777L18.8106 15.4603L18.8684 15.4421L18.9077 15.4292L18.9346 15.4201L18.9429 15.4159L18.789 16.2405L18.7576 16.2625L18.7266 16.2803L18.6953 16.2978L18.665 16.3152L18.6336 16.3289L18.5981 16.3421L18.5591 16.3554L18.5187 16.3691L18.4744 16.382L18.4299 16.3911L18.3776 16.3998L18.325 16.4092L18.2672 16.418L18.2007 16.427L18.1293 16.4354L18.0544 16.4442H17.7182L17.5413 16.4309L17.387 16.4131L17.2463 16.3872L17.1268 16.3554L17.0244 16.3152L16.9408 16.2719L16.8659 16.2185L16.8084 16.1605L16.7642 16.0986L16.7325 16.0231L16.7109 15.9473L16.6977 15.8638L16.6938 15.7702V15.6727L16.7064 15.571L16.7203 15.4603L17.5639 10.6235Z" fill="white"/>
<path fill-rule="evenodd" clip-rule="evenodd" d="M30.8624 11.9619L30.8053 11.9311L30.7481 11.9042L30.6854 11.8731L30.6193 11.8417L30.5527 11.8155L30.4785 11.7892L30.403 11.7623L30.3242 11.7361L30.2399 11.7138L30.1546 11.6963L30.063 11.6781L29.9703 11.6649L29.8683 11.6554L29.7673 11.6474H29.4399L29.3246 11.6554L29.2051 11.6694L29.0818 11.6914L28.9578 11.7264L28.8341 11.7756L28.7108 11.8378L28.5861 11.9171L28.4674 12.0153L28.3517 12.1303L28.241 12.2721L28.1361 12.4363L28.0386 12.6306L27.9459 12.8528L27.862 13.1019L27.7916 13.3853L27.7641 13.5443L27.7474 13.6994L27.738 13.8549L27.7432 14.0055L27.7554 14.1564L27.7864 14.2983L27.8265 14.4314L27.8749 14.5638L27.9411 14.6844L28.0205 14.799L28.1142 14.901L28.2201 14.9943L28.3388 15.0746L28.4757 15.1403L28.6265 15.1983L28.7944 15.2378L28.8519 15.2507L28.9188 15.2644L28.9985 15.2735L29.0863 15.2825L29.1832 15.2916H29.3949L29.506 15.2825L29.621 15.2689L29.7356 15.2466L29.846 15.2158L29.9571 15.1809L30.0668 15.1316L30.1682 15.0746L30.2615 15.0034L30.35 14.9237L30.1518 16.1075L30.1246 16.1291L30.0982 16.156L30.063 16.1878L30.0233 16.2126L29.9749 16.2486L29.9125 16.2801L29.8415 16.3108L29.7624 16.337L29.6603 16.3688L29.5457 16.3908L29.4137 16.409L29.258 16.4268L29.0863 16.4352L28.8867 16.4401L28.6624 16.4352L28.4141 16.4219L28.2107 16.3996L28.0076 16.3552L27.8042 16.2892L27.6011 16.2001L27.4067 16.0942L27.2204 15.9604L27.0445 15.8056L26.8808 15.6288L26.7342 15.4289L26.6112 15.2078L26.5046 14.9593L26.4259 14.6886L26.3726 14.3916L26.3545 14.0768L26.3639 13.7312L26.4116 13.3626L26.4478 13.1816L26.4865 13.0041L26.5314 12.8312L26.5764 12.6669L26.6234 12.5118L26.6812 12.357L26.7394 12.2103L26.801 12.073L26.8683 11.9353L26.9337 11.8067L27.009 11.683L27.0877 11.5677L27.1682 11.4563L27.2563 11.3504L27.3444 11.2529L27.4374 11.1596L27.5388 11.0705L27.6408 10.9867L27.7474 10.9112L27.8578 10.8399L27.9766 10.7735L28.0961 10.7169L28.2201 10.6631L28.3479 10.6139L28.4855 10.5698L28.6213 10.5346L28.7634 10.5031L28.9139 10.4766L29.0637 10.4538L29.2225 10.4371L29.3824 10.4283L29.5499 10.4231L29.6927 10.4283L29.8289 10.4371L29.9616 10.4503L30.0937 10.4682L30.2176 10.4856L30.3371 10.5118L30.4517 10.5346L30.5576 10.5608L30.6597 10.5873L30.7481 10.6139L30.8324 10.6408L30.9024 10.6673L30.9648 10.6893L31.0174 10.7075L31.0571 10.725L31.0839 10.7344L30.8624 11.9619Z" fill="white"/>
<path fill-rule="evenodd" clip-rule="evenodd" d="M41.7441 16.444H40.5197L40.6089 15.9524V15.9073L40.5378 15.9968L40.4619 16.0758L40.3874 16.147L40.3083 16.2092L40.2285 16.2672L40.1488 16.3151L40.069 16.3553L39.9854 16.3958L39.9015 16.4269L39.8175 16.4489L39.7332 16.4702L39.6448 16.4835L39.5573 16.4971L39.4727 16.5062L39.3849 16.5108H39.2964L39.0666 16.4926L38.8541 16.444L38.6594 16.3689L38.4824 16.2672L38.3233 16.1383L38.1822 15.9881L38.0578 15.8231L37.9519 15.6373L37.8645 15.4371L37.7935 15.2299L37.7447 15.0125L37.7092 14.7861L37.6963 14.5601L37.7005 14.3298L37.7221 14.1031L37.7625 13.8777L37.8286 13.6149L37.9077 13.3676L38.0014 13.1412L38.1115 12.9287L38.2257 12.7289L38.3588 12.5514L38.4953 12.3924L38.642 12.246L38.7963 12.1167L38.96 12.0063L39.1282 11.9088L39.2964 11.8337L39.4727 11.7712L39.6493 11.7317L39.8255 11.7051L40.0067 11.6964L40.1359 11.6999L40.2592 11.7139L40.3748 11.7362L40.48 11.767L40.5821 11.8026L40.6709 11.8417L40.759 11.8914L40.8388 11.9399L40.9091 11.9927L40.975 12.051L41.0324 12.108L41.0854 12.166L41.13 12.224L41.17 12.2809L41.2056 12.3347L41.2313 12.3879L41.5417 10.6458H42.7434L41.7441 16.444Z" fill="white"/>
<path fill-rule="evenodd" clip-rule="evenodd" d="M39.7414 15.3714L39.8658 15.3626L39.9804 15.3361L40.087 15.3053L40.1887 15.2564L40.2813 15.2037L40.3698 15.1359L40.4537 15.0615L40.529 14.9808L40.5945 14.8924L40.6572 14.7949L40.7139 14.6928L40.7634 14.587L40.8073 14.4752L40.8428 14.3602L40.8735 14.2404L40.8958 14.1216L40.9174 13.9975L40.9309 13.869V13.7481L40.9271 13.6251L40.9135 13.5091L40.8958 13.3983L40.8648 13.2921L40.8292 13.1897L40.785 13.102L40.732 13.0175L40.6749 12.9455L40.6088 12.8844L40.5335 12.8312L40.4537 12.7956L40.3698 12.7732L40.2775 12.7642L40.1573 12.7732L40.0466 12.7907L39.9456 12.8267L39.8435 12.8707L39.7557 12.9287L39.6666 12.9997L39.592 13.0748L39.5164 13.1597L39.4506 13.2558L39.3883 13.3585L39.3301 13.4647L39.2824 13.58L39.2381 13.6995L39.2033 13.82L39.1674 13.9479L39.1413 14.0769L39.1187 14.2722L39.1281 14.4846L39.1584 14.7012L39.2169 14.9098L39.3043 15.0922L39.4196 15.2379L39.5652 15.3361L39.7414 15.3714Z" fill="#FBB231"/>
<path fill-rule="evenodd" clip-rule="evenodd" d="M12.6016 15.4603L12.4239 16.4442H11.3097L11.3407 16.2625L11.364 16.0986L11.3804 15.9746L11.3985 15.9075L11.3365 15.9788L11.2658 16.05L11.1822 16.1168L11.0885 16.1779L10.9833 16.2405L10.8729 16.2932L10.7572 16.3467L10.6378 16.3911L10.5093 16.4309L10.3825 16.4623L10.2529 16.4885L10.1216 16.5064L9.9927 16.5154L9.86557 16.5196L9.74121 16.5064L9.6214 16.4885L9.46639 16.4491L9.32568 16.404L9.20167 16.3467L9.0909 16.2803L8.99443 16.2094L8.9063 16.1294L8.83455 16.0448L8.77324 15.9568L8.72065 15.8638L8.67572 15.7656L8.64088 15.6685L8.61406 15.571L8.59595 15.469L8.58341 15.367L8.57471 15.2691V15.1717L8.58724 14.9987L8.61406 14.8345L8.6583 14.6797L8.71613 14.5284L8.78648 14.3873L8.86555 14.2587L8.9589 14.135L9.06478 14.0235L9.1759 13.9219L9.29955 13.8282L9.42773 13.744L9.55974 13.6731L9.70115 13.6123L9.84745 13.5623L9.99757 13.5228L10.1526 13.4959H10.1606L10.1825 13.4914L10.2142 13.4872L10.2626 13.4827L10.3156 13.4739L10.3772 13.469L10.4438 13.4603L10.5187 13.4516L10.5939 13.4435L10.6695 13.4341L10.7492 13.4292L10.8196 13.4208L10.8907 13.4166L10.9558 13.4114L11.0188 13.4075H11.169L11.2748 13.4114L11.3717 13.4166H11.4689L11.5486 13.4208L11.611 13.4247L11.6545 13.4292H11.6681L11.6768 13.3985L11.7036 13.3191L11.7249 13.2248L11.7339 13.1413L11.7162 13.0438L11.6768 12.9547L11.6239 12.8751L11.5528 12.8087L11.4689 12.7517L11.3762 12.7115L11.27 12.6846L11.1554 12.6759L11.0317 12.6714L10.8983 12.6672H10.7614L10.6207 12.6714L10.4748 12.6804L10.3327 12.6937L10.1919 12.7066L10.0554 12.7252L9.92199 12.7419L9.79381 12.7643L9.67886 12.7863L9.57298 12.8087L9.47579 12.8359L9.39603 12.8618L9.33438 12.8932L9.28562 12.9194L9.5991 11.8513L9.69698 11.8115L9.79381 11.7758L9.9004 11.7447L10.0063 11.722L10.1129 11.7L10.2275 11.6833L10.3424 11.6651L10.4615 11.6557L10.5848 11.6476L10.713 11.6427L10.8457 11.6382H11.27L11.4253 11.6427L11.58 11.6476L11.7036 11.6557L11.8363 11.6784L11.9732 11.7095L12.1139 11.7496L12.2515 11.8028L12.3842 11.8649L12.5162 11.9401L12.6409 12.0243L12.75 12.1224L12.8482 12.228L12.9374 12.3478L13.0025 12.4809L13.0474 12.6235L13.0728 12.7734V12.9414L13.0474 13.1193L12.6016 15.4603Z" fill="white"/>
<path fill-rule="evenodd" clip-rule="evenodd" d="M11.5358 14.3026L11.5313 14.2809L11.5131 14.2585L11.4867 14.2453L11.4424 14.2362L11.3937 14.2278L11.3366 14.2229H11.2035L11.1335 14.2278L11.0586 14.2362L10.9879 14.2453L10.9168 14.2543L10.8507 14.2634L10.7883 14.276L10.7357 14.2893L10.6869 14.3026L10.6559 14.3113L10.6208 14.3253L10.5723 14.3424L10.5229 14.3648L10.4658 14.3917L10.4083 14.4228L10.347 14.4539L10.2892 14.4891L10.2275 14.5332L10.1701 14.5775L10.1164 14.6313L10.0687 14.6845L10.0238 14.7418L9.99276 14.804L9.96733 14.8749L9.95305 14.9455L9.94922 15.0967L9.97081 15.2159L10.015 15.3053L10.0729 15.3714L10.139 15.4157L10.2143 15.442L10.2853 15.4552L10.3557 15.4601L10.4881 15.4552L10.6079 15.442L10.7225 15.4238L10.8245 15.3976L10.9123 15.3668L10.9963 15.3274L11.0711 15.2872L11.1384 15.2379L11.1958 15.1935L11.2477 15.1404L11.2927 15.0922L11.3278 15.0391L11.3581 14.9856L11.3864 14.9325L11.4076 14.8836L11.4201 14.8343L11.456 14.7065L11.4867 14.5601L11.5131 14.4179L11.5358 14.3026Z" fill="#EC1C2E"/>
<path fill-rule="evenodd" clip-rule="evenodd" d="M3.30095 16.4442H2.09961L3.10311 10.6235H5.193L5.39258 14.077L6.83774 10.6235H9.02133L7.9952 16.4442H6.79351L7.55319 12.0956H7.50582L5.70572 16.4442H4.34973L4.34067 16.2625L4.30968 15.7789L4.26996 15.0923L4.22503 14.3027L4.18114 13.5092L4.14144 12.8139L4.11078 12.3087L4.10138 12.0956H4.03555L3.30095 16.4442Z" fill="white"/>
<path fill-rule="evenodd" clip-rule="evenodd" d="M34.5362 15.4603L34.3547 16.4442H33.2457L33.2537 16.2625L33.2582 16.1031V15.9837L33.2673 15.9305L33.2098 15.9969L33.1429 16.063L33.0645 16.1248L32.9754 16.1881L32.8834 16.2447L32.7768 16.2978L32.6661 16.3516L32.5553 16.3959L32.4362 16.4309L32.3122 16.4658L32.1892 16.4885L32.0652 16.5064L31.9367 16.5154L31.8138 16.5196L31.6939 16.5064L31.5745 16.4885L31.4156 16.4491L31.2746 16.404L31.1502 16.3467L31.0349 16.2803L30.9381 16.2094L30.8534 16.1294L30.7834 16.0448L30.7221 15.9568L30.6685 15.8638L30.6291 15.7656L30.5936 15.6685L30.5713 15.571L30.5528 15.469L30.5403 15.367L30.5312 15.2691V15.1717L30.5403 14.9987L30.5671 14.8345L30.6061 14.6797L30.6643 14.5284L30.7305 14.3873L30.8141 14.2587L30.9071 14.135L31.0084 14.0235L31.1237 13.9219L31.2432 13.8282L31.3714 13.744L31.5086 13.6731L31.6455 13.6123L31.7911 13.5623L31.9367 13.5228L32.0868 13.4959H32.0962L32.1175 13.4914L32.1492 13.4872L32.1934 13.4827L32.2509 13.4739L32.3122 13.469L32.3791 13.4603L32.4491 13.4516L32.5247 13.4435L32.6044 13.4341L32.6797 13.4292L32.7546 13.4208L32.8249 13.4166L32.8869 13.4114L32.9493 13.4075H33.1039L33.2098 13.4114L33.3112 13.4166H33.4083L33.493 13.4208L33.5633 13.4247L33.603 13.4292H33.6212L33.6302 13.3985L33.6431 13.3191L33.656 13.2248L33.6647 13.1413L33.648 13.0438L33.6131 12.9547L33.5553 12.8751L33.4877 12.8087L33.4083 12.7517L33.316 12.7115L33.2189 12.6846L33.1123 12.6759L32.9883 12.6714L32.8566 12.6672H32.719L32.5773 12.6714L32.432 12.6804L32.2906 12.6937L32.1492 12.7066L32.0116 12.7252L31.8789 12.7419L31.7514 12.7643L31.6365 12.7863L31.5302 12.8087L31.433 12.8359L31.354 12.8618L31.2909 12.8932L31.2432 12.9194L31.5525 11.8513L31.649 11.8115L31.7514 11.7758L31.8535 11.7447L31.9586 11.722L32.0694 11.7L32.1805 11.6833L32.2941 11.6651L32.4146 11.6557L32.5376 11.6476L32.6661 11.6427L32.7943 11.6382H33.2098L33.3603 11.6427L33.5104 11.6476L33.6344 11.6557L33.7664 11.6784L33.9033 11.7095L34.0454 11.7496L34.183 11.8028L34.3185 11.8649L34.4516 11.9401L34.5752 12.0243L34.6867 12.1224L34.7873 12.228L34.8755 12.3478L34.942 12.4809L34.9911 12.6235L35.0224 12.7734V12.9414L34.9998 13.1193L34.5362 15.4603Z" fill="white"/>
<path fill-rule="evenodd" clip-rule="evenodd" d="M34.3545 16.4752L34.3806 16.449L34.5617 15.4644L34.5088 15.4553L34.3276 16.4403L34.3545 16.413V16.4752L34.3761 16.4703L34.3806 16.449L34.3545 16.4752Z" fill="white"/>
<path fill-rule="evenodd" clip-rule="evenodd" d="M33.219 16.4442L33.2458 16.4753H34.3549V16.4131H33.2458L33.2723 16.4442H33.219L33.2148 16.4753H33.2458L33.219 16.4442Z" fill="white"/>
<path fill-rule="evenodd" clip-rule="evenodd" d="M31.5703 16.5154L31.694 16.5332L31.8138 16.5458L31.9367 16.5423L32.0653 16.5332L32.1934 16.5154L32.3167 16.4927L32.4411 16.4581L32.5644 16.4221L32.6752 16.3778L32.7894 16.325L32.8967 16.2719L32.9883 16.2093L33.0813 16.1471L33.1604 16.0857L33.2321 16.0137L33.2899 15.9473L33.2457 15.9124L33.1879 15.9787L33.1262 16.0409L33.0458 16.1031L32.9625 16.165L32.8695 16.2184L32.764 16.2719L32.6574 16.325L32.547 16.369L32.432 16.404L32.3084 16.4403L32.184 16.4623L32.0653 16.4794L31.9367 16.4885L31.8138 16.4927L31.694 16.4794L31.579 16.4623L31.5703 16.5154Z" fill="white"/>
<path fill-rule="evenodd" clip-rule="evenodd" d="M30.501 15.1716L30.5048 15.2691L30.5135 15.3669L30.5278 15.4735L30.5452 15.5752L30.5672 15.6727L30.6027 15.775L30.6417 15.8764L30.6999 15.97L30.7612 16.0629L30.8326 16.1472L30.9207 16.231L31.0221 16.3023L31.137 16.3736L31.2659 16.4309L31.4108 16.4752L31.5703 16.5154L31.579 16.4623L31.4195 16.4221L31.2833 16.3778L31.1635 16.3205L31.0482 16.2579L30.9555 16.188L30.8758 16.1115L30.8054 16.0273L30.7431 15.9431L30.6953 15.8505L30.6556 15.7569L30.6194 15.6646L30.5982 15.5665L30.5807 15.4644L30.5672 15.3669L30.5577 15.2691L30.5626 15.1716H30.501Z" fill="white"/>
<path fill-rule="evenodd" clip-rule="evenodd" d="M32.0869 13.4688L31.9326 13.4957L31.7824 13.5362L31.6365 13.5844L31.4954 13.6462L31.3575 13.7168L31.2258 13.8066L31.1057 13.8999L30.9911 14.0054L30.8852 14.1165L30.7918 14.2402L30.7034 14.3733L30.6375 14.5201L30.5807 14.6707L30.5403 14.8304L30.5135 14.9984L30.501 15.1714H30.5626L30.5672 14.9984L30.5936 14.8391L30.633 14.6885L30.6908 14.5376L30.7563 14.3999L30.8357 14.2759L30.9294 14.1515L31.0259 14.0414L31.1408 13.9436L31.2607 13.8499L31.3836 13.771L31.5219 13.6994L31.6539 13.6382L31.7999 13.5893L31.9413 13.5488L32.0869 13.5226V13.4688Z" fill="white"/>
<path fill-rule="evenodd" clip-rule="evenodd" d="M32.9978 13.376H32.9494L32.887 13.3854L32.825 13.3907L32.7546 13.3941L32.6798 13.4025L32.6045 13.4074L32.5247 13.4165L32.4492 13.4245L32.3791 13.434L32.3123 13.4434L32.251 13.4469L32.1935 13.456L32.1493 13.4602L32.1137 13.4647L32.0963 13.4689H32.0869V13.5227H32.0963L32.1224 13.5175L32.1493 13.514L32.1935 13.5091L32.251 13.5007L32.3123 13.4958L32.3791 13.4871L32.4492 13.4777L32.5247 13.4689L32.6045 13.4602L32.6798 13.456L32.7546 13.4469L32.825 13.4434L32.887 13.4382H32.9978V13.376Z" fill="white"/>
<path fill-rule="evenodd" clip-rule="evenodd" d="M33.5942 13.4245L33.621 13.4025H33.6029L33.5632 13.3983L33.4929 13.3941L33.4082 13.3854H33.2097L33.1038 13.376H32.9976V13.4382H33.2097L33.311 13.4469H33.4929L33.5632 13.4514L33.6029 13.456H33.621L33.6479 13.434L33.621 13.456L33.643 13.4602L33.6479 13.434L33.5942 13.4245Z" fill="white"/>
<path fill-rule="evenodd" clip-rule="evenodd" d="M33.1123 12.7022V12.7068L33.2147 12.7116L33.307 12.7386L33.3951 12.7777L33.4704 12.8315L33.532 12.8933L33.585 12.9688L33.6212 13.0481L33.6386 13.1414H33.6916L33.6734 13.0397L33.6386 12.9416L33.577 12.8584L33.5063 12.7864L33.422 12.7253L33.3248 12.6847L33.2227 12.6585L33.1123 12.6453V12.7022Z" fill="white"/>
<path fill-rule="evenodd" clip-rule="evenodd" d="M31.2163 12.9156L31.2605 12.9415L31.3048 12.9195L31.3619 12.8884L31.4382 12.8618L31.5343 12.8359L31.6413 12.8139L31.7555 12.7909L31.8833 12.7689L32.0115 12.7517L32.1491 12.7332L32.2905 12.7199L32.4319 12.7067L32.5772 12.6983H32.9882L33.1122 12.7021V12.649L32.9882 12.6452L32.8565 12.6357H32.7189L32.5772 12.6452L32.4319 12.6532L32.2905 12.6672L32.1491 12.6805L32.0115 12.6983L31.875 12.7151L31.7461 12.7385L31.6322 12.7608L31.5253 12.7828L31.4281 12.8087L31.3452 12.8359L31.2787 12.8663L31.2257 12.8974L31.2699 12.924L31.2163 12.9156Z" fill="white"/>
<path fill-rule="evenodd" clip-rule="evenodd" d="M31.5441 11.8245L31.5253 11.8472L31.2163 12.9156L31.2699 12.924L31.5789 11.8556L31.5611 11.8783L31.5441 11.8245L31.5301 11.829L31.5253 11.8472L31.5441 11.8245Z" fill="white"/>
<path fill-rule="evenodd" clip-rule="evenodd" d="M33.5102 11.6209L33.3601 11.6122L33.2096 11.6069H32.7941L32.6659 11.6164L32.5373 11.6209L32.4144 11.6303L32.2939 11.638L32.1751 11.6555L32.065 11.6733L31.9546 11.6964L31.848 11.7184L31.7425 11.7495L31.6411 11.7848L31.5439 11.8243L31.561 11.8781L31.6585 11.8379L31.7596 11.8026L31.8567 11.7712L31.963 11.7495L32.0744 11.7264L32.1838 11.7093L32.2939 11.6915L32.4144 11.6831L32.5373 11.6733L32.6659 11.6695H33.2096L33.3601 11.6733H33.5102V11.6209Z" fill="white"/>
<path fill-rule="evenodd" clip-rule="evenodd" d="M35.0265 13.1236L35.0481 12.9412V12.7732L35.0178 12.6173L34.969 12.4713L34.8983 12.3347L34.8088 12.2103L34.7032 12.0999L34.5932 12.0017L34.4646 11.9171L34.3319 11.8378L34.1912 11.7756L34.0533 11.7218L33.9087 11.683L33.7704 11.6519L33.6342 11.6303L33.5103 11.6208V11.6733L33.6342 11.683L33.7617 11.7051L33.899 11.7362L34.0355 11.7756L34.1734 11.8287L34.3058 11.8913L34.4382 11.9619L34.558 12.0461L34.6684 12.1432L34.7656 12.2459L34.8533 12.3605L34.9153 12.4902L34.9641 12.6271L34.9958 12.7732V12.9412L34.9728 13.1149L35.0265 13.1236Z" fill="white"/>
<path fill-rule="evenodd" clip-rule="evenodd" d="M34.5617 15.4644L35.0264 13.1237L34.9727 13.115L34.5088 15.4553L34.5617 15.4644Z" fill="white"/>
<path fill-rule="evenodd" clip-rule="evenodd" d="M33.466 14.3027L33.4573 14.2762L33.4406 14.2545L33.4082 14.2405L33.365 14.2279L33.3159 14.223L33.258 14.2185H33.1919L33.126 14.223L33.055 14.2318L32.9839 14.2405L32.9136 14.25L32.8463 14.2587L32.7819 14.2723L32.7237 14.281L32.6659 14.2947L32.6217 14.3027L32.5917 14.3073L32.5552 14.3205L32.512 14.3342L32.4625 14.3516L32.4043 14.3778L32.3521 14.4054L32.2904 14.4362L32.233 14.4753L32.1752 14.5158L32.1173 14.5641L32.0693 14.6126L32.0212 14.671L31.9808 14.7332L31.9498 14.7992L31.9237 14.8705L31.9108 14.9456L31.9062 15.0969L31.9272 15.216L31.963 15.3055L32.016 15.3715L32.0825 15.4159L32.1577 15.4421L32.233 15.4554L32.3082 15.4603L32.4409 15.4554L32.5642 15.4421L32.6795 15.4201L32.7819 15.3897L32.878 15.3537L32.9623 15.3142L33.0414 15.2691L33.1121 15.216L33.1748 15.1675L33.2267 15.1102L33.2755 15.0567L33.3159 14.9987L33.3462 14.9456L33.3695 14.8925L33.3869 14.8394L33.3998 14.7908L33.4179 14.6664L33.4406 14.5379L33.4573 14.4142L33.466 14.3027Z" fill="#FBB231"/>
<path fill-rule="evenodd" clip-rule="evenodd" d="M42.5698 15.8373L42.5799 15.7345L42.6134 15.615L42.6761 15.5085L42.751 15.4159L42.844 15.3411L42.9516 15.2873L43.0658 15.251L43.1888 15.238L43.3135 15.251L43.4277 15.2873L43.534 15.3411L43.6273 15.4159L43.7022 15.5085L43.7642 15.615L43.799 15.7345L43.8084 15.8373H43.6757L43.6716 15.7569L43.644 15.6594L43.6001 15.571L43.543 15.4952L43.4723 15.4333L43.3887 15.3897L43.2915 15.3579L43.1888 15.3491L43.0874 15.3579L42.991 15.3897L42.9067 15.4333L42.8356 15.4952L42.7785 15.571L42.7346 15.6594L42.7078 15.7569L42.6987 15.8373H42.5698Z" fill="white"/>
<path fill-rule="evenodd" clip-rule="evenodd" d="M42.9683 15.837V15.5708H43.2114L43.265 15.575L43.3138 15.5837L43.3486 15.5974L43.3796 15.6148L43.4016 15.6414L43.419 15.6683L43.4281 15.699L43.4326 15.7305L43.4281 15.77L43.419 15.8011L43.4061 15.828L43.3971 15.837H43.2114L43.2288 15.8322L43.2602 15.828L43.2863 15.8192L43.3093 15.8105L43.3267 15.7972L43.3357 15.7829L43.3441 15.7619V15.7305L43.3392 15.7081L43.3305 15.6899L43.318 15.6819L43.3044 15.6725L43.2818 15.6683L43.2602 15.6644H43.079V15.837H42.9683Z" fill="white"/>
<path fill-rule="evenodd" clip-rule="evenodd" d="M42.57 15.8372L42.5669 15.8637L42.5801 15.9923L42.6136 16.1114L42.6763 16.2184L42.7512 16.3067L42.8442 16.3819L42.9518 16.4402L43.066 16.4752L43.189 16.4884L43.3137 16.4752L43.428 16.4402L43.5342 16.3819L43.6275 16.3067L43.7024 16.2184L43.7644 16.1114L43.7993 15.9923L43.8121 15.8637L43.8087 15.8372H43.6759L43.6805 15.8637L43.6718 15.9699L43.6443 16.0674L43.6004 16.152L43.5433 16.2264L43.4725 16.2893L43.3889 16.3371L43.2918 16.3689L43.189 16.3777L43.0876 16.3689L42.9912 16.3371L42.9069 16.2893L42.8358 16.2264L42.7787 16.152L42.7348 16.0674L42.708 15.9699L42.6989 15.8637V15.8372H42.57Z" fill="white"/>
<path fill-rule="evenodd" clip-rule="evenodd" d="M42.9683 15.8372V16.1076H43.079V15.8857H43.1891L43.3215 16.1076H43.411L43.2783 15.8857H43.3093L43.3392 15.8763L43.366 15.8676L43.389 15.8504L43.397 15.8372H43.2114L43.1891 15.8414H43.079V15.8372H42.9683Z" fill="white"/>
<path fill-rule="evenodd" clip-rule="evenodd" d="M34.8677 16.444H36.114L36.5601 13.9217L36.5776 13.8246L36.6044 13.7267L36.6305 13.6289L36.666 13.5314L36.7103 13.4339L36.7632 13.3406L36.821 13.2523L36.8914 13.1677L36.9712 13.0926L37.0589 13.0216L37.161 12.9546L37.2759 12.9015L37.4038 12.8581L37.5452 12.8225L37.7002 12.7956L37.8719 12.7862H37.9827L38.1819 11.6475L38.0575 11.6555L37.9388 11.6695L37.8284 11.6915L37.7218 11.7219L37.6253 11.7575L37.5319 11.8026L37.4435 11.8512L37.3595 11.9043L37.2805 11.9668L37.2045 12.0287L37.1342 12.0999L37.0638 12.1702L36.9973 12.246L36.9311 12.3295L36.8646 12.4095L36.8036 12.4982L36.9363 11.6964H35.6939L34.8677 16.444Z" fill="white"/>
<path fill-rule="evenodd" clip-rule="evenodd" d="M23.1641 16.444H24.4323L24.8565 13.9217L24.8746 13.8246L24.8962 13.7313L24.9182 13.6383L24.9495 13.5489L24.9844 13.4601L25.0289 13.3759L25.0819 13.2966L25.1439 13.2212L25.2146 13.1534L25.294 13.088L25.3915 13.0346L25.4974 12.986L25.6211 12.9455L25.7583 12.9112L25.9084 12.8882L26.0805 12.8749H26.0944L26.1119 12.8798L26.1341 12.8843H26.1561L26.1777 12.8882L26.1965 12.8931L26.2087 12.8973H26.2139L26.2177 12.8798L26.2313 12.8267L26.2487 12.747L26.2714 12.6488L26.3017 12.5339L26.3334 12.4095L26.3727 12.2858L26.4117 12.1607L26.448 12.0772L26.4922 11.9927L26.5364 11.9088L26.58 11.8337L26.6194 11.767L26.6503 11.7138L26.6733 11.6831L26.6813 11.6695H26.6779L26.6598 11.6649L26.6382 11.66L26.6068 11.6555H26.5765L26.541 11.652L26.5096 11.6475H26.4786L26.3414 11.6555L26.2177 11.6695L26.1031 11.6915L25.9973 11.7184L25.8959 11.7537L25.8022 11.7984L25.7183 11.8417L25.6385 11.8948L25.564 11.9532L25.4929 12.0199L25.4267 12.0867L25.3609 12.1607L25.294 12.2372L25.232 12.3218L25.1662 12.4095L25.0993 12.4982L25.2585 11.6964H23.9903L23.1641 16.444Z" fill="white"/>
<path fill-rule="evenodd" clip-rule="evenodd" d="M42.5801 21.1083V21.0905L42.6135 20.9751L42.6762 20.8731L42.7511 20.7851L42.8441 20.7138L42.9517 20.66L43.066 20.6296L43.1889 20.616L43.3136 20.6296L43.4279 20.66L43.5341 20.7138L43.6275 20.7851L43.7024 20.8731L43.7644 20.9751L43.7992 21.0905V21.1083H43.6717L43.6442 21.0157L43.6003 20.9311L43.5432 20.855L43.4725 20.7938L43.3889 20.7445L43.2917 20.7138L43.1889 20.7051L43.0876 20.7138L42.9911 20.7445L42.9068 20.7938L42.8358 20.855L42.7786 20.9311L42.7347 21.0157L42.7079 21.1083H42.5801Z" fill="#FBB231"/>
<path fill-rule="evenodd" clip-rule="evenodd" d="M42.9683 21.1083V20.9539H43.265L43.3138 20.9626L43.3486 20.9703L43.3796 20.9881L43.4016 21.0112L43.419 21.0374L43.4281 21.0685L43.4326 21.1083H43.3441V21.0859L43.3392 21.0636L43.3305 21.0461L43.318 21.0374L43.3044 21.0286L43.2818 21.0237L43.2602 21.0199H43.079V21.1083H42.9683Z" fill="#FBB231"/>
<path fill-rule="evenodd" clip-rule="evenodd" d="M42.5669 21.2053L42.5801 21.1082H42.708V21.1116L42.6989 21.2053H42.5669Z" fill="#FBB231"/>
<path fill-rule="evenodd" clip-rule="evenodd" d="M42.9683 21.2053V21.1082H43.079V21.1966H43.1891L43.2288 21.1882L43.2602 21.1836L43.2863 21.1745L43.3093 21.1658L43.3267 21.1529L43.3357 21.1389L43.3441 21.1179V21.1082H43.4326L43.4281 21.1389L43.419 21.1658L43.4061 21.1882L43.389 21.2053H42.9683Z" fill="#FBB231"/>
<path fill-rule="evenodd" clip-rule="evenodd" d="M43.6806 21.2053L43.6719 21.1116V21.1082H43.7994L43.8122 21.2053H43.6806Z" fill="#FBB231"/>
<path fill-rule="evenodd" clip-rule="evenodd" d="M42.5669 21.2053V21.2189L42.5801 21.3472L42.6136 21.467L42.6763 21.5732L42.7512 21.6669L42.8442 21.7427L42.9518 21.7948L43.066 21.8307L43.189 21.844L43.3137 21.8307L43.428 21.7948L43.5342 21.7427L43.6275 21.6669L43.7024 21.5732L43.7644 21.467L43.7993 21.3472L43.8121 21.2189V21.2053H43.6805V21.2189L43.6718 21.3259L43.6443 21.4233L43.6004 21.5069L43.5433 21.5816L43.4725 21.6452L43.3889 21.6938L43.2918 21.7245L43.189 21.7333L43.0876 21.7245L42.9912 21.6938L42.9069 21.6452L42.8358 21.5816L42.7787 21.5069L42.7348 21.4233L42.708 21.3259L42.6989 21.2189V21.2053H42.5669Z" fill="#FBB231"/>
<path fill-rule="evenodd" clip-rule="evenodd" d="M42.9683 21.2053V21.4628H43.079V21.241H43.1891L43.3215 21.4628H43.411L43.2783 21.241H43.3093L43.3392 21.2322L43.366 21.2235L43.389 21.2053H42.9683Z" fill="#FBB231"/>
<path fill-rule="evenodd" clip-rule="evenodd" d="M22.1031 13.5175H20.4887L20.4901 13.514L20.4876 13.5133L20.4988 13.4515L20.5165 13.3585L20.5427 13.2698L20.5737 13.1814L20.6137 13.1017L20.6538 13.0259L20.7015 12.9543L20.7551 12.8882L20.813 12.8264L20.869 12.7729L20.9366 12.7247L21.0017 12.6845L21.0777 12.6489L21.1529 12.6234L21.2278 12.6045L21.3072 12.5916L21.3919 12.5867L21.4709 12.5954L21.5462 12.6087L21.6172 12.6265L21.6876 12.6524L21.7538 12.6887L21.8199 12.7285L21.8781 12.7729L21.9304 12.8264L21.9746 12.8882L22.0188 12.9543L22.0498 13.0301L22.0808 13.115L22.0979 13.2034L22.1073 13.3009L22.1125 13.4074L22.1031 13.5175ZM23.3013 13.1097L23.2658 12.8449L23.2035 12.6094L23.1157 12.4061L23.0046 12.2279L22.8726 12.0773L22.727 11.9536L22.5681 11.8474L22.395 11.7674L22.2188 11.7003L22.0376 11.6559L21.8558 11.6255L21.675 11.6073L21.5026 11.6028L21.1442 11.6213L20.8265 11.6737L20.5385 11.7541L20.2828 11.8652L20.0616 11.9983L19.8666 12.1489L19.6942 12.3173L19.5531 12.4948L19.4291 12.681L19.3281 12.8756L19.249 13.0671L19.1818 13.2565L19.1337 13.4441L19.0982 13.616L19.0721 13.7806L19.0547 13.9224L19.0327 14.2858L19.0459 14.6136L19.094 14.9109L19.1686 15.1722L19.2758 15.407L19.404 15.6118L19.5534 15.7931L19.7259 15.9441L19.9115 16.073L20.1111 16.1827L20.3183 16.268L20.5346 16.334L20.7558 16.3878L20.977 16.4186L21.1978 16.4409L21.4141 16.4448H21.5604L21.6984 16.4409H21.8168L21.9321 16.436L22.0342 16.4273L22.1268 16.4186L22.2146 16.4098L22.2947 16.3965L22.3699 16.3826L22.4403 16.3654L22.512 16.3427L22.5782 16.3211L22.6441 16.2938L22.7151 16.268L22.7851 16.2316L22.8562 16.1963L23.0331 15.1062L22.9053 15.1813L22.7809 15.2516L22.6535 15.3061L22.5288 15.3543L22.41 15.3941L22.286 15.4203L22.1665 15.4423L22.0474 15.4605L21.9279 15.4692L21.8133 15.4741H21.6942L21.5796 15.4692L21.465 15.4605L21.3497 15.4472L21.2393 15.4339L21.1247 15.4165L21.0362 15.3987L20.9478 15.3676L20.8596 15.3284L20.7792 15.2788L20.7001 15.2264L20.629 15.1604L20.5632 15.0933L20.5009 15.0171L20.4483 14.9423L20.4002 14.8588L20.364 14.7781L20.3333 14.6936L20.3159 14.6094L20.3072 14.5245L20.3107 14.4497L20.3211 14.3924H23.1888L23.2104 14.122L23.2773 13.7488L23.3083 13.412L23.3041 13.1104L23.3013 13.1097Z" fill="white"/>
</svg>
