<svg width="53" height="53" viewBox="0 0 53 53" fill="none" xmlns="http://www.w3.org/2000/svg">
<path d="M19.875 19.875C30.8477 19.875 39.75 15.4238 39.75 9.9375C39.75 4.45117 30.8477 0 19.875 0C8.89593 0 0 4.45117 0 9.9375C0 15.4238 8.89593 19.875 19.875 19.875ZM22.6182 11.3674C22.0618 11.1862 20.8196 10.9662 18.9045 10.6945C17.1771 10.4551 15.8314 10.2158 14.8609 9.98284C13.8905 9.74993 13.1011 9.42323 12.493 9.00265C11.8913 8.57886 11.5872 8.08716 11.5872 7.53076C11.5872 6.79642 12.1307 6.1333 13.2112 5.54782C14.2917 4.96233 15.9932 4.60324 18.3158 4.47063V3.3125H21.4537V4.47063C24.9603 4.63885 27.2312 5.43467 28.2599 6.85149L23.9381 7.56316C23.097 6.58949 21.7966 6.101 20.0304 6.101C19.144 6.101 18.4323 6.21104 17.8954 6.4277C17.3584 6.64436 17.0931 6.90967 17.0931 7.22021C17.0931 7.53397 17.3519 7.77661 17.8695 7.94482C18.3806 8.11304 19.4934 8.32328 21.1885 8.57244C23.0518 8.84417 24.5139 9.10296 25.5686 9.34239C26.6296 9.58503 27.4772 9.92146 28.1111 10.3452C28.7387 10.7723 29.0557 11.2705 29.0557 11.8398C29.0557 12.7197 28.4023 13.4475 27.1018 14.0331C25.795 14.6154 23.9123 14.9615 21.4538 15.065V16.5625H18.316V15.0713C14.2076 14.903 11.6715 13.9487 10.6881 12.2084L15.5404 11.7038C15.9933 12.7972 17.4813 13.3439 20.0045 13.3439C21.1885 13.3439 22.0619 13.2274 22.6183 12.9913C23.1747 12.7584 23.4529 12.4737 23.4529 12.1437C23.4528 11.8008 23.1746 11.542 22.6182 11.3674ZM0 16.5625C0 15.9737 0.116455 15.4012 0.317068 14.8416C3.68774 18.8205 11.0762 21.5312 19.875 21.5312C22.3982 21.5312 24.7856 21.2854 27.0176 20.8745C24.6885 22.2882 22.7022 24.1968 21.2078 26.4676C20.7614 26.4806 20.3215 26.5 19.875 26.5C8.89593 26.5 0 22.0488 0 16.5625ZM39.75 16.5625C39.75 17.216 39.6142 17.8564 39.3682 18.4775C38.4107 18.3223 37.4403 18.2188 36.4374 18.2188C35.8939 18.2188 35.3634 18.2544 34.8329 18.2996C36.7286 17.313 38.3136 16.1549 39.4329 14.8416C39.627 15.4012 39.75 15.9738 39.75 16.5625ZM27.4252 52.2527C25.0961 52.7315 22.547 53 19.875 53C8.89593 53 0 48.5488 0 43.0625C0 42.4737 0.116455 41.9012 0.317068 41.3416C3.68774 45.3204 11.0762 48.0312 19.875 48.0312C20.7096 48.0312 21.5183 47.9859 22.3206 47.9375C23.7375 49.6714 25.4714 51.1335 27.4252 52.2527ZM0 36.4375C0 35.8487 0.116455 35.2762 0.317068 34.7166C3.56487 38.5466 10.5522 41.1765 18.9176 41.3706C19.4158 43.1531 20.1792 44.8255 21.1691 46.3426C20.7355 46.3555 20.3085 46.3749 19.8751 46.3749C8.89593 46.375 0 41.9238 0 36.4375ZM0 29.8125C0 29.2237 0.116455 28.6512 0.317068 28.0916C3.48723 31.8278 10.2158 34.4157 18.3029 34.7198C18.2512 35.2859 18.2188 35.8584 18.2188 36.4375C18.2188 37.5567 18.3352 38.6501 18.5293 39.7177C8.18426 39.3682 0 35.0723 0 29.8125ZM0 23.1875C0 22.5987 0.116455 22.0262 0.317068 21.4666C3.68774 25.4455 11.0762 28.1562 19.875 28.1562C19.998 28.1562 20.1144 28.1433 20.2373 28.1433C19.448 29.6799 18.8657 31.3394 18.5422 33.0926C8.19067 32.7465 0 28.4473 0 23.1875ZM36.4375 19.875C27.2828 19.875 19.875 27.2958 19.875 36.4375C19.875 45.5889 27.2828 53 36.4375 53C45.5857 53 53 45.5889 53 36.4375C53 27.2958 45.5857 19.875 36.4375 19.875ZM42.2214 44.625C41.1799 45.796 39.6658 46.4818 37.699 46.6889V49.6844H35.1888V46.7052C31.9086 46.3688 29.8771 44.4569 29.0943 40.9761L32.9697 39.9669C33.332 42.1536 34.5225 43.2471 36.5474 43.2471C37.4856 43.2471 38.1843 43.0142 38.6307 42.5451C39.077 42.0761 39.3035 41.5132 39.3035 40.8501C39.3035 40.1643 39.077 39.6435 38.6307 39.2941C38.1843 38.9382 37.1944 38.4887 35.661 37.9452C34.283 37.4697 33.2025 36.9975 32.4262 36.5251C31.6498 36.0593 31.0223 35.4059 30.5306 34.5647C30.0518 33.7204 29.806 32.737 29.806 31.6209C29.806 30.1522 30.2395 28.8292 31.1063 27.655C31.9733 26.4807 33.3319 25.7659 35.1888 25.5039V23.1875H37.699V25.5037C40.5069 25.8401 42.325 27.4251 43.1466 30.2622L39.6917 31.6855C39.0189 29.7349 37.9773 28.7644 36.5604 28.7644C35.8552 28.7644 35.2859 28.9812 34.8588 29.4178C34.4253 29.8546 34.2118 30.3785 34.2118 30.9964C34.2118 31.6304 34.4188 32.1124 34.8329 32.4521C35.247 32.7886 36.1333 33.2058 37.4855 33.7041C38.98 34.2475 40.151 34.762 40.9921 35.2471C41.8397 35.729 42.5189 36.4019 43.0301 37.2527C43.5283 38.1067 43.7871 39.103 43.7871 40.2417C43.7871 41.995 43.2631 43.4539 42.2214 44.625Z" fill="#937940"/>
</svg>
