<svg width="137" height="23" viewBox="0 0 137 23" fill="none" xmlns="http://www.w3.org/2000/svg">
<path d="M11.2912 0L13.8262 7.80203H22.0298L15.393 12.624L17.928 20.426L11.2912 15.6041L4.6544 20.426L7.18944 12.624L0.552631 7.80203H8.75618L11.2912 0Z" fill="#937940"/>
<path d="M39.8956 0L42.4306 7.80203H50.6342L43.9974 12.624L46.5324 20.426L39.8956 15.6041L33.2588 20.426L35.7938 12.624L29.157 7.80203H37.3605L39.8956 0Z" fill="#937940"/>
<path d="M68.5001 0L71.0351 7.80203H79.2386L72.6018 12.624L75.1369 20.426L68.5001 15.6041L61.8633 20.426L64.3983 12.624L57.7615 7.80203H65.965L68.5001 0Z" fill="#937940"/>
<path d="M97.1043 0L99.6394 7.80203H107.843L101.206 12.624L103.741 20.426L97.1043 15.6041L90.4675 20.426L93.0025 12.624L86.3657 7.80203H94.5693L97.1043 0Z" fill="#937940"/>
<path d="M125.709 0L128.244 7.80203H136.447L129.811 12.624L132.346 20.426L125.709 15.6041L119.072 20.426L121.607 12.624L114.97 7.80203H123.174L125.709 0Z" fill="#E1D9C7"/>
</svg>
