<svg width="23" height="23" viewBox="0 0 23 23" fill="none" xmlns="http://www.w3.org/2000/svg">
<path d="M22.2109 21.1016L17.1327 16.0234H17.078C18.6433 14.1779 19.4342 11.7987 19.2855 9.38336C19.1368 6.96806 18.0599 4.70382 16.2801 3.06428C14.5003 1.42474 12.1554 0.536918 9.73606 0.586521C7.31669 0.636124 5.01021 1.61931 3.2991 3.33043C1.58799 5.04154 0.604798 7.34801 0.555195 9.76738C0.505592 12.1867 1.39342 14.5316 3.03296 16.3114C4.67249 18.0912 6.93674 19.1681 9.35204 19.3168C11.7673 19.4656 14.1466 18.6746 15.9921 17.1094C15.9921 17.1094 15.9921 17.1484 15.9921 17.1641L21.0702 22.2422C21.1429 22.3154 21.2293 22.3735 21.3245 22.4132C21.4197 22.4529 21.5218 22.4733 21.6249 22.4733C21.7281 22.4733 21.8302 22.4529 21.9254 22.4132C22.0206 22.3735 22.107 22.3154 22.1796 22.2422C22.2597 22.1713 22.3244 22.0847 22.3696 21.9877C22.4149 21.8908 22.4397 21.7856 22.4427 21.6786C22.4456 21.5717 22.4265 21.4653 22.3867 21.366C22.3468 21.2668 22.287 21.1768 22.2109 21.1016ZM9.93742 17.75C8.39225 17.75 6.88179 17.2918 5.59703 16.4334C4.31227 15.5749 3.31092 14.3548 2.71961 12.9272C2.1283 11.4997 1.97359 9.92883 2.27504 8.41335C2.57648 6.89788 3.32055 5.50582 4.41315 4.41323C5.50575 3.32063 6.8978 2.57656 8.41328 2.27511C9.92875 1.97367 11.4996 2.12838 12.9271 2.71969C14.3547 3.311 15.5748 4.31235 16.4333 5.5971C17.2917 6.88186 17.7499 8.39233 17.7499 9.9375C17.7499 10.9634 17.5478 11.9794 17.1552 12.9272C16.7626 13.8751 16.1872 14.7363 15.4617 15.4618C14.7362 16.1872 13.875 16.7627 12.9271 17.1553C11.9793 17.5479 10.9634 17.75 9.93742 17.75Z" fill="white"/>
</svg>
