<svg width="15" height="15" viewBox="0 0 15 15" fill="none" xmlns="http://www.w3.org/2000/svg">
<g clip-path="url(#clip0_22_340)">
<path d="M14.9677 11.6223C14.9253 11.4944 14.6553 11.3061 14.1581 11.0577C14.0234 10.9795 13.8315 10.8731 13.5831 10.7381C13.3345 10.6031 13.1089 10.4788 12.9066 10.3651C12.7039 10.2515 12.514 10.1414 12.3366 10.035C12.3082 10.0137 12.2195 9.95169 12.0703 9.84848C11.921 9.74557 11.7951 9.66919 11.692 9.61938C11.589 9.56986 11.4877 9.54494 11.3883 9.54494C11.2463 9.54494 11.0689 9.6462 10.8559 9.84848C10.6429 10.051 10.4476 10.271 10.2701 10.5092C10.0926 10.7472 9.90434 10.9672 9.70569 11.1696C9.50673 11.3721 9.34326 11.4733 9.21557 11.4733C9.15147 11.4733 9.07154 11.4554 8.97576 11.4201C8.88001 11.3846 8.80717 11.3542 8.75717 11.3297C8.70762 11.3047 8.62258 11.2551 8.50176 11.1803C8.38072 11.1057 8.3134 11.0649 8.29922 11.0577C7.32627 10.5179 6.49183 9.89994 5.79574 9.20415C5.09988 8.50795 4.48189 7.67358 3.94215 6.70052C3.93506 6.6863 3.89413 6.6188 3.81961 6.49813C3.74498 6.37735 3.69525 6.29223 3.67039 6.24238C3.64554 6.19272 3.61536 6.11988 3.57991 6.02402C3.54446 5.92816 3.52666 5.84831 3.52666 5.78432C3.52666 5.65656 3.62789 5.49312 3.83032 5.29424C4.03271 5.09547 4.25293 4.90719 4.49077 4.72976C4.7288 4.55234 4.9488 4.35696 5.15126 4.14398C5.35365 3.93088 5.45484 3.75341 5.45484 3.6114C5.45484 3.51203 5.42999 3.41073 5.38033 3.30778C5.33063 3.20461 5.25428 3.07871 5.15126 2.92949C5.0482 2.78035 4.98607 2.69166 4.96473 2.66311C4.85831 2.48568 4.74835 2.29572 4.63458 2.09329C4.52081 1.8909 4.39663 1.66531 4.26163 1.41676C4.12674 1.16833 4.02028 0.976497 3.94207 0.841571C3.69364 0.344517 3.50547 0.0745153 3.37759 0.0320524C3.32786 0.0107463 3.25323 0 3.1539 0C2.96203 0 2.71173 0.0354479 2.40281 0.106568C2.09378 0.177575 1.85061 0.252053 1.67303 0.3303C1.31792 0.479368 0.941538 0.912579 0.543775 1.62978C0.181571 2.29725 0.000488281 2.95789 0.000488281 3.61121C0.000488281 3.80282 0.0129137 3.98924 0.0377646 4.17051C0.0626155 4.35159 0.107019 4.55581 0.171012 4.78312C0.234892 5.01036 0.286423 5.17917 0.325378 5.28909C0.364371 5.39909 0.43717 5.59615 0.543737 5.88033C0.650156 6.16443 0.714149 6.33835 0.735455 6.40227C0.984001 7.09832 1.27874 7.7197 1.6196 8.26661C2.18042 9.17564 2.94576 10.1151 3.91517 11.0846C4.88462 12.054 5.82388 12.8193 6.73298 13.3803C7.27982 13.7212 7.90142 14.0159 8.59736 14.2646C8.66131 14.2858 8.83523 14.3496 9.11923 14.4564C9.40333 14.5629 9.60046 14.6357 9.71046 14.6748C9.8205 14.7139 9.98934 14.7654 10.2164 14.8294C10.4439 14.8934 10.648 14.9378 10.829 14.9629C11.0102 14.9874 11.1967 15 11.3883 15C12.0416 15 12.7023 14.8188 13.3699 14.4567C14.087 14.0591 14.5201 13.6826 14.6693 13.3272C14.7477 13.1498 14.822 12.9066 14.893 12.5976C14.9642 12.2887 14.9996 12.0384 14.9996 11.8466C14.9998 11.7468 14.9891 11.6724 14.9677 11.6223Z" fill="white"/>
</g>
<defs>
<clipPath id="clip0_22_340">
<rect width="15" height="15" fill="white"/>
</clipPath>
</defs>
</svg>
