<svg width="15" height="15" viewBox="0 0 15 15" fill="none" xmlns="http://www.w3.org/2000/svg">
<g clip-path="url(#clip0_22_315)">
<path d="M0 7.50005C0 11.6422 3.35785 15.0001 7.50002 15.0001C11.6422 15.0001 15 11.6422 15 7.50005C15 3.35788 11.6422 3.05176e-05 7.50002 3.05176e-05C3.35785 3.05176e-05 0 3.35788 0 7.50005Z" fill="url(#paint0_linear_22_315)"/>
<path d="M5.07666 8.04818L5.96649 10.5111C5.96649 10.5111 6.07772 10.7415 6.1969 10.7415C6.31607 10.7415 8.08779 8.89823 8.08779 8.89823L10.0581 5.09261L5.10844 7.41253L5.07666 8.04818Z" fill="#C8DAEA"/>
<path d="M6.25636 8.67984L6.08551 10.4952C6.08551 10.4952 6.01401 11.0514 6.57015 10.4952C7.1263 9.93908 7.65861 9.51005 7.65861 9.51005" fill="#A9C6D8"/>
<path d="M5.09296 8.13615L3.26276 7.53977C3.26276 7.53977 3.04431 7.45111 3.11448 7.24981C3.12897 7.20831 3.15814 7.17303 3.24554 7.11208C3.65118 6.82943 10.7522 4.27707 10.7522 4.27707C10.7522 4.27707 10.9527 4.20957 11.0712 4.25445C11.1254 4.27498 11.16 4.29817 11.1891 4.38284C11.1997 4.41366 11.2058 4.47919 11.205 4.5444C11.2043 4.59144 11.1986 4.63498 11.1944 4.7033C11.1512 5.40119 9.85712 10.6091 9.85712 10.6091C9.85712 10.6091 9.7797 10.9139 9.50227 10.9242C9.40108 10.9281 9.27828 10.9075 9.13146 10.7812C8.58708 10.3129 6.70527 9.04829 6.28953 8.77022C6.26601 8.75458 6.2594 8.73418 6.2554 8.71429C6.24955 8.68505 6.28082 8.64857 6.28082 8.64857C6.28082 8.64857 9.55744 5.73595 9.64464 5.43036C9.65138 5.40665 9.62602 5.39496 9.59163 5.40519C9.374 5.48527 5.60137 7.86748 5.18506 8.13062C5.16071 8.146 5.09245 8.13609 5.09245 8.13609" fill="white"/>
</g>
<defs>
<linearGradient id="paint0_linear_22_315" x1="7.50002" y1="15" x2="7.50002" y2="-3.30419e-05" gradientUnits="userSpaceOnUse">
<stop stop-color="#1D93D2"/>
<stop offset="1" stop-color="#38B0E3"/>
</linearGradient>
<clipPath id="clip0_22_315">
<rect width="15" height="15" fill="white"/>
</clipPath>
</defs>
</svg>
