<svg width="44" height="15" viewBox="0 0 44 15" fill="none" xmlns="http://www.w3.org/2000/svg">
<path d="M18.9538 13.9912H15.3867L17.6166 0.24585H21.1848L18.9538 13.9912Z" fill="#0066B2"/>
<path d="M12.3852 0.245711L8.98424 9.69975L8.58159 7.6638V7.66415L7.38094 1.48328C7.38094 1.48328 7.23709 0.245711 5.68918 0.245711H0.0663183L0.000488281 0.47876C0.000488281 0.47876 1.72012 0.836544 3.73269 2.04896L6.832 13.9907H10.5489L16.2254 0.245361H12.3855L12.3852 0.245711Z" fill="#0066B2"/>
<path d="M36.5214 9.12918L38.3953 3.98428L39.4504 9.12918H36.5214ZM40.4473 13.9907H43.7232L40.867 0.245361H37.999C36.6747 0.245361 36.3518 1.2691 36.3518 1.2691L31.0312 13.9907H34.7495L35.4935 11.9495H40.0286L40.4473 13.9907Z" fill="#0066B2"/>
<path d="M31.3099 3.55094L31.8188 0.59922C31.8188 0.59922 30.2472 0 28.6105 0C26.8393 0 22.6351 0.776015 22.6351 4.55057C22.6351 8.10221 27.5701 8.14589 27.5701 10.0103C27.5701 11.875 23.144 11.542 21.6825 10.366L21.1523 13.4512C21.1523 13.4512 22.7448 14.2282 25.1796 14.2282C27.6132 14.2282 31.2873 12.9634 31.2873 9.52252C31.2873 5.94852 26.3078 5.61484 26.3078 4.06141C26.3078 2.50729 29.7826 2.70714 31.3089 3.55094H31.3099Z" fill="#0066B2"/>
<path d="M8.5811 7.66453L7.38046 1.48366C7.38046 1.48366 7.2366 0.246094 5.68869 0.246094H0.0658321L0 0.479142C0 0.479142 2.70328 1.04028 5.29509 3.14471C7.77371 5.15724 8.58075 7.66453 8.58075 7.66453H8.5811Z" fill="#F9A533"/>
</svg>
