<svg width="15" height="15" viewBox="0 0 15 15" fill="none" xmlns="http://www.w3.org/2000/svg">
<path d="M7.5 15C11.6421 15 15 11.6421 15 7.5C15 3.35786 11.6421 0 7.5 0C3.35786 0 0 3.35786 0 7.5C0 11.6421 3.35786 15 7.5 15Z" fill="#4D76A1"/>
<path fill-rule="evenodd" clip-rule="evenodd" d="M7.21672 10.7894H7.80538C7.80538 10.7894 7.98319 10.7699 8.07397 10.672C8.15753 10.5822 8.15485 10.4135 8.15485 10.4135C8.15485 10.4135 8.14336 9.6236 8.50995 9.50729C8.87132 9.39271 9.33538 10.2707 9.82724 10.6083C10.1992 10.8638 10.4818 10.8077 10.4818 10.8077L11.797 10.7894C11.797 10.7894 12.485 10.747 12.1587 10.2061C12.132 10.1619 11.9688 9.80596 11.1809 9.07465C10.3563 8.30925 10.4667 8.43305 11.4601 7.10908C12.065 6.30276 12.3069 5.8105 12.2313 5.59966C12.1593 5.39885 11.7143 5.45193 11.7143 5.45193L10.2335 5.46116C10.2335 5.46116 10.1238 5.44618 10.0424 5.49485C9.96281 5.54258 9.9116 5.65381 9.9116 5.65381C9.9116 5.65381 9.67724 6.27776 9.36466 6.8084C8.70528 7.92809 8.44163 7.98718 8.33387 7.91766C8.08319 7.75562 8.14576 7.2667 8.14576 6.91936C8.14576 5.8343 8.31034 5.38188 7.8253 5.26476C7.66433 5.22585 7.54588 5.20018 7.13423 5.19604C6.60587 5.19056 6.15866 5.19764 5.90544 5.32171C5.73699 5.4042 5.60704 5.58803 5.68618 5.59859C5.78405 5.6117 6.00571 5.65836 6.12323 5.81839C6.27497 6.02481 6.26963 6.48847 6.26963 6.48847C6.26963 6.48847 6.3568 7.76578 6.06601 7.92448C5.8664 8.03331 5.5926 7.81111 5.00474 6.79529C4.70353 6.27496 4.47611 5.6998 4.47611 5.6998C4.47611 5.6998 4.43226 5.59231 4.35405 5.53482C4.25913 5.46517 4.1265 5.44297 4.1265 5.44297L2.71937 5.4522C2.71937 5.4522 2.50813 5.45808 2.43059 5.54993C2.3616 5.63162 2.42511 5.80061 2.42511 5.80061C2.42511 5.80061 3.52675 8.37797 4.77412 9.67681C5.91788 10.8676 7.21672 10.7894 7.21672 10.7894Z" fill="white"/>
</svg>
