<svg width="15" height="15" viewBox="0 0 15 15" fill="none" xmlns="http://www.w3.org/2000/svg">
<path d="M7.50193 0.490723H7.49827C3.644 0.490723 0.509766 3.63431 0.509766 7.5C0.509766 9.03328 1.00251 10.4545 1.84049 11.6084L0.969434 14.2121L3.65643 13.3509C4.76165 14.0852 6.08018 14.5092 7.50193 14.5092C11.3562 14.5092 14.4904 11.3647 14.4904 7.49997C14.4904 3.63524 11.3562 0.490723 7.50193 0.490723Z" fill="#5ACF5F"/>
<path d="M11.5695 10.3886C11.4008 10.8662 10.7315 11.2621 10.1977 11.3779C9.8323 11.4558 9.35532 11.5181 7.74944 10.8504C5.695 9.99709 4.3721 7.90389 4.26912 7.76809C4.17024 7.63224 3.43896 6.65988 3.43896 5.65389C3.43896 4.64809 3.94832 4.15822 4.15375 3.94813C4.32224 3.77537 4.60103 3.69668 4.86842 3.69668C4.95496 3.69668 5.03266 3.70096 5.10271 3.7045C5.30802 3.71335 5.41103 3.72551 5.54658 4.05058C5.71521 4.45807 6.12578 5.46384 6.17485 5.56731C6.22469 5.67073 6.27435 5.8108 6.2045 5.94656C6.13888 6.08683 6.08131 6.149 5.97818 6.26809C5.87503 6.38742 5.77706 6.4785 5.67405 6.6063C5.57975 6.71757 5.47311 6.83678 5.59199 7.0427C5.71079 7.24424 6.12139 7.9161 6.72599 8.45584C7.50648 9.15237 8.13895 9.37494 8.36535 9.46963C8.53399 9.53979 8.73493 9.52301 8.85801 9.39161C9.01445 9.22245 9.20775 8.94214 9.40425 8.66625C9.54402 8.4682 9.72051 8.44362 9.90578 8.51367C10.0945 8.57941 11.0932 9.0745 11.2986 9.17698C11.5038 9.28037 11.6395 9.32941 11.6892 9.41619C11.7382 9.50276 11.7382 9.91028 11.5695 10.3886Z" fill="#FCFCFC"/>
</svg>
